<svg xmlns="http://www.w3.org/2000/svg" xmlns:xlink="http://www.w3.org/1999/xlink" width="512" zoomAndPan="magnify" viewBox="0 0 384 383.999986" height="512" preserveAspectRatio="xMidYMid meet" version="1.0"><defs><clipPath id="7fd2ab0e2f"><path d="M 0.00390625 0 L 221.332031 0 L 221.332031 383.996094 L 0.00390625 383.996094 Z M 0.00390625 0 " clip-rule="nonzero"/></clipPath><clipPath id="2904400ad5"><path d="M 0.00390625 191.996094 L 221.332031 -0.00390625 L 221.332031 383.996094 Z M 0.00390625 191.996094 " clip-rule="nonzero"/></clipPath><clipPath id="f90856be14"><path d="M 0.00390625 0 L 221.332031 0 L 221.332031 383.996094 L 0.00390625 383.996094 Z M 0.00390625 0 " clip-rule="nonzero"/></clipPath><clipPath id="e2035e7e7b"><path d="M 0.00390625 191.996094 L 221.332031 -0.00390625 L 221.332031 383.996094 Z M 0.00390625 191.996094 " clip-rule="nonzero"/></clipPath><clipPath id="e006bc2dc1"><rect x="0" width="222" y="0" height="384"/></clipPath><clipPath id="bc8f0b4755"><path d="M 0 0 L 144 0 L 144 144 L 0 144 Z M 0 0 " clip-rule="nonzero"/></clipPath><clipPath id="d17725d197"><rect x="0" width="144" y="0" height="144"/></clipPath><clipPath id="e9bc18db97"><path d="M 244 122 L 384 122 L 384 262 L 244 262 Z M 244 122 " clip-rule="nonzero"/></clipPath><clipPath id="2f2bd2a836"><path d="M 282.175781 122.089844 L 384 223.914062 L 346.003906 261.910156 L 244.179688 160.085938 Z M 282.175781 122.089844 " clip-rule="nonzero"/></clipPath><clipPath id="c6efd2d0d2"><path d="M 0.078125 0 L 140 0 L 140 140 L 0.078125 140 Z M 0.078125 0 " clip-rule="nonzero"/></clipPath><clipPath id="32f7e6967d"><path d="M 38.175781 0.0898438 L 140 101.914062 L 102.003906 139.910156 L 0.179688 38.085938 Z M 38.175781 0.0898438 " clip-rule="nonzero"/></clipPath><clipPath id="98e14d2131"><rect x="0" width="140" y="0" height="140"/></clipPath><clipPath id="d8bd5fab5a"><path d="M 244 119 L 384 119 L 384 260 L 244 260 Z M 244 119 " clip-rule="nonzero"/></clipPath><clipPath id="8b7643c16b"><path d="M 384 157.992188 L 282.175781 259.816406 L 244.179688 221.820312 L 346.003906 119.996094 Z M 384 157.992188 " clip-rule="nonzero"/></clipPath><clipPath id="c23ae3964e"><path d="M 0.078125 0.761719 L 140 0.761719 L 140 140.921875 L 0.078125 140.921875 Z M 0.078125 0.761719 " clip-rule="nonzero"/></clipPath><clipPath id="f98f1c1c2e"><path d="M 140 38.992188 L 38.175781 140.816406 L 0.179688 102.820312 L 102.003906 0.996094 Z M 140 38.992188 " clip-rule="nonzero"/></clipPath><clipPath id="7a967bb5a8"><rect x="0" width="140" y="0" height="141"/></clipPath></defs><g clip-path="url(#7fd2ab0e2f)"><g clip-path="url(#2904400ad5)"><g><g clip-path="url(#e006bc2dc1)"><g clip-path="url(#f90856be14)"><g clip-path="url(#e2035e7e7b)"><path fill="#ffffff" d="M 0.00390625 383.996094 L 0.00390625 0.132812 L 221.332031 0.132812 L 221.332031 383.996094 Z M 0.00390625 383.996094 " fill-opacity="1" fill-rule="nonzero"/></g></g></g></g></g></g><g transform="matrix(1, 0, 0, 1, 0, 120)"><g clip-path="url(#d17725d197)"><g clip-path="url(#bc8f0b4755)"><rect x="-84.48" width="552.96" fill="#ffffff" height="552.959979" y="-204.479997" fill-opacity="1"/></g></g></g><g clip-path="url(#e9bc18db97)"><g clip-path="url(#2f2bd2a836)"><g transform="matrix(1, 0, 0, 1, 244, 122)"><g clip-path="url(#98e14d2131)"><g clip-path="url(#c6efd2d0d2)"><g clip-path="url(#32f7e6967d)"><path fill="#ffffff" d="M 38.175781 0.0898438 L 139.992188 101.90625 L 101.996094 139.902344 L 0.179688 38.085938 Z M 38.175781 0.0898438 " fill-opacity="1" fill-rule="nonzero"/></g></g></g></g></g></g><g clip-path="url(#d8bd5fab5a)"><g clip-path="url(#8b7643c16b)"><g transform="matrix(1, 0, 0, 1, 244, 119)"><g clip-path="url(#7a967bb5a8)"><g clip-path="url(#c23ae3964e)"><g clip-path="url(#f98f1c1c2e)"><path fill="#ffffff" d="M 140 38.992188 L 38.183594 140.808594 L 0.1875 102.8125 L 102.003906 0.996094 Z M 140 38.992188 " fill-opacity="1" fill-rule="nonzero"/></g></g></g></g></g></g></svg>