<svg xmlns="http://www.w3.org/2000/svg" xmlns:xlink="http://www.w3.org/1999/xlink" width="512" zoomAndPan="magnify" viewBox="0 0 384 383.999986" height="512" preserveAspectRatio="xMidYMid meet" version="1.0"><defs><clipPath id="194d52d75f"><path d="M 0.00390625 0 L 221.332031 0 L 221.332031 383.996094 L 0.00390625 383.996094 Z M 0.00390625 0 " clip-rule="nonzero"/></clipPath><clipPath id="7a55ea9a52"><path d="M 0.00390625 191.996094 L 221.332031 -0.00390625 L 221.332031 383.996094 Z M 0.00390625 191.996094 " clip-rule="nonzero"/></clipPath><clipPath id="6be478c408"><path d="M 0.00390625 0 L 221.332031 0 L 221.332031 383.996094 L 0.00390625 383.996094 Z M 0.00390625 0 " clip-rule="nonzero"/></clipPath><clipPath id="d33f55fd8a"><path d="M 0.00390625 191.996094 L 221.332031 -0.00390625 L 221.332031 383.996094 Z M 0.00390625 191.996094 " clip-rule="nonzero"/></clipPath><clipPath id="4a26eed852"><rect x="0" width="222" y="0" height="384"/></clipPath><clipPath id="89b6e39d34"><path d="M 0 0 L 144 0 L 144 144 L 0 144 Z M 0 0 " clip-rule="nonzero"/></clipPath><clipPath id="6bc1a9aa96"><rect x="0" width="144" y="0" height="144"/></clipPath><clipPath id="f82173e6af"><path d="M 230.199219 107.179688 L 288.210938 107.179688 L 288.210938 276.828125 L 230.199219 276.828125 Z M 230.199219 107.179688 " clip-rule="nonzero"/></clipPath><clipPath id="2fce4acbd0"><path d="M 0.199219 0.179688 L 58.210938 0.179688 L 58.210938 169.828125 L 0.199219 169.828125 Z M 0.199219 0.179688 " clip-rule="nonzero"/></clipPath><clipPath id="6a80444385"><rect x="0" width="59" y="0" height="170"/></clipPath><clipPath id="eea066e971"><path d="M 230.203125 38.390625 L 288.214844 38.390625 L 288.214844 346.003906 L 230.203125 346.003906 Z M 230.203125 38.390625 " clip-rule="nonzero"/></clipPath><clipPath id="4388c612df"><path d="M 0.203125 0.390625 L 58.214844 0.390625 L 58.214844 308.003906 L 0.203125 308.003906 Z M 0.203125 0.390625 " clip-rule="nonzero"/></clipPath><clipPath id="bfcb21d47c"><rect x="0" width="59" y="0" height="309"/></clipPath></defs><g clip-path="url(#194d52d75f)"><g clip-path="url(#7a55ea9a52)"><g><g clip-path="url(#4a26eed852)"><g clip-path="url(#6be478c408)"><g clip-path="url(#d33f55fd8a)"><path fill="#ffffff" d="M 0.00390625 383.996094 L 0.00390625 0.132812 L 221.332031 0.132812 L 221.332031 383.996094 Z M 0.00390625 383.996094 " fill-opacity="1" fill-rule="nonzero"/></g></g></g></g></g></g><g transform="matrix(1, 0, 0, 1, 0, 120)"><g clip-path="url(#6bc1a9aa96)"><g clip-path="url(#89b6e39d34)"><rect x="-84.48" width="552.96" fill="#ffffff" height="552.959979" y="-204.479997" fill-opacity="1"/></g></g></g><g clip-path="url(#f82173e6af)"><g transform="matrix(1, 0, 0, 1, 230, 107)"><g clip-path="url(#6a80444385)"><g clip-path="url(#2fce4acbd0)"><path fill="#ffffff" d="M 58.210938 0.179688 L 58.210938 169.902344 L 0.199219 169.902344 L 0.199219 0.179688 Z M 58.210938 0.179688 " fill-opacity="1" fill-rule="nonzero"/></g></g></g></g><g clip-path="url(#eea066e971)"><g transform="matrix(1, 0, 0, 1, 230, 38)"><g clip-path="url(#bfcb21d47c)"><g clip-path="url(#4388c612df)"><path fill="#ffffff" d="M 58.214844 308.003906 L 0.203125 308.003906 L 0.203125 0.28125 L 58.214844 0.28125 Z M 58.214844 308.003906 " fill-opacity="1" fill-rule="nonzero"/></g></g></g></g></svg>