<svg xmlns="http://www.w3.org/2000/svg" xmlns:xlink="http://www.w3.org/1999/xlink" width="512" zoomAndPan="magnify" viewBox="0 0 384 383.999986" height="512" preserveAspectRatio="xMidYMid meet" version="1.0"><defs><clipPath id="2b581cf4bc"><path d="M 0.00390625 0 L 221.332031 0 L 221.332031 383.996094 L 0.00390625 383.996094 Z M 0.00390625 0 " clip-rule="nonzero"/></clipPath><clipPath id="95c4f8baf1"><path d="M 0.00390625 191.996094 L 221.332031 -0.00390625 L 221.332031 383.996094 Z M 0.00390625 191.996094 " clip-rule="nonzero"/></clipPath><clipPath id="3b83182ae3"><path d="M 0.00390625 0 L 221.332031 0 L 221.332031 383.996094 L 0.00390625 383.996094 Z M 0.00390625 0 " clip-rule="nonzero"/></clipPath><clipPath id="5855459874"><path d="M 0.00390625 191.996094 L 221.332031 -0.00390625 L 221.332031 383.996094 Z M 0.00390625 191.996094 " clip-rule="nonzero"/></clipPath><clipPath id="5a5c2d3a6d"><rect x="0" width="222" y="0" height="384"/></clipPath><clipPath id="6c43603e63"><path d="M 0 0 L 144 0 L 144 144 L 0 144 Z M 0 0 " clip-rule="nonzero"/></clipPath><clipPath id="68be587ca6"><rect x="0" width="144" y="0" height="144"/></clipPath><clipPath id="ef818c46c2"><path d="M 230.199219 107.179688 L 288.210938 107.179688 L 288.210938 276.828125 L 230.199219 276.828125 Z M 230.199219 107.179688 " clip-rule="nonzero"/></clipPath><clipPath id="57daf52db7"><path d="M 0.199219 0.179688 L 58.210938 0.179688 L 58.210938 169.828125 L 0.199219 169.828125 Z M 0.199219 0.179688 " clip-rule="nonzero"/></clipPath><clipPath id="6b96ea3a1b"><rect x="0" width="59" y="0" height="170"/></clipPath></defs><g clip-path="url(#2b581cf4bc)"><g clip-path="url(#95c4f8baf1)"><g><g clip-path="url(#5a5c2d3a6d)"><g clip-path="url(#3b83182ae3)"><g clip-path="url(#5855459874)"><path fill="#ffffff" d="M 0.00390625 383.996094 L 0.00390625 0.132812 L 221.332031 0.132812 L 221.332031 383.996094 Z M 0.00390625 383.996094 " fill-opacity="1" fill-rule="nonzero"/></g></g></g></g></g></g><g transform="matrix(1, 0, 0, 1, 0, 120)"><g clip-path="url(#68be587ca6)"><g clip-path="url(#6c43603e63)"><rect x="-84.48" width="552.96" fill="#ffffff" height="552.959979" y="-204.479997" fill-opacity="1"/></g></g></g><g clip-path="url(#ef818c46c2)"><g transform="matrix(1, 0, 0, 1, 230, 107)"><g clip-path="url(#6b96ea3a1b)"><g clip-path="url(#57daf52db7)"><path fill="#ffffff" d="M 58.210938 0.179688 L 58.210938 169.902344 L 0.199219 169.902344 L 0.199219 0.179688 Z M 58.210938 0.179688 " fill-opacity="1" fill-rule="nonzero"/></g></g></g></g></svg>