<svg xmlns="http://www.w3.org/2000/svg" xmlns:xlink="http://www.w3.org/1999/xlink" width="512" zoomAndPan="magnify" viewBox="0 0 384 383.999986" height="512" preserveAspectRatio="xMidYMid meet" version="1.0"><defs><clipPath id="e8e31b2a15"><path d="M 0.00390625 0 L 221.332031 0 L 221.332031 383.996094 L 0.00390625 383.996094 Z M 0.00390625 0 " clip-rule="nonzero"/></clipPath><clipPath id="6260f01606"><path d="M 0.00390625 191.996094 L 221.332031 -0.00390625 L 221.332031 383.996094 Z M 0.00390625 191.996094 " clip-rule="nonzero"/></clipPath><clipPath id="4530eaa127"><path d="M 0.00390625 0 L 221.332031 0 L 221.332031 383.996094 L 0.00390625 383.996094 Z M 0.00390625 0 " clip-rule="nonzero"/></clipPath><clipPath id="4d342943ac"><path d="M 0.00390625 191.996094 L 221.332031 -0.00390625 L 221.332031 383.996094 Z M 0.00390625 191.996094 " clip-rule="nonzero"/></clipPath><clipPath id="a57ac762b4"><rect x="0" width="222" y="0" height="384"/></clipPath><clipPath id="213a1d4d79"><path d="M 0 0 L 144 0 L 144 144 L 0 144 Z M 0 0 " clip-rule="nonzero"/></clipPath><clipPath id="935caf554f"><rect x="0" width="144" y="0" height="144"/></clipPath><clipPath id="2a54502a86"><path d="M 230.203125 38.390625 L 288.214844 38.390625 L 288.214844 346.003906 L 230.203125 346.003906 Z M 230.203125 38.390625 " clip-rule="nonzero"/></clipPath><clipPath id="7421417521"><path d="M 0.203125 0.390625 L 58.214844 0.390625 L 58.214844 308.003906 L 0.203125 308.003906 Z M 0.203125 0.390625 " clip-rule="nonzero"/></clipPath><clipPath id="f448062caa"><rect x="0" width="59" y="0" height="309"/></clipPath><clipPath id="6c17ac3567"><path d="M 297.210938 107.179688 L 355.21875 107.179688 L 355.21875 276.828125 L 297.210938 276.828125 Z M 297.210938 107.179688 " clip-rule="nonzero"/></clipPath><clipPath id="96a66ee694"><path d="M 0.210938 0.179688 L 58.21875 0.179688 L 58.21875 169.828125 L 0.210938 169.828125 Z M 0.210938 0.179688 " clip-rule="nonzero"/></clipPath><clipPath id="fdab8cf54c"><rect x="0" width="59" y="0" height="170"/></clipPath></defs><g clip-path="url(#e8e31b2a15)"><g clip-path="url(#6260f01606)"><g><g clip-path="url(#a57ac762b4)"><g clip-path="url(#4530eaa127)"><g clip-path="url(#4d342943ac)"><path fill="#ffffff" d="M 0.00390625 383.996094 L 0.00390625 0.132812 L 221.332031 0.132812 L 221.332031 383.996094 Z M 0.00390625 383.996094 " fill-opacity="1" fill-rule="nonzero"/></g></g></g></g></g></g><g transform="matrix(1, 0, 0, 1, 0, 120)"><g clip-path="url(#935caf554f)"><g clip-path="url(#213a1d4d79)"><rect x="-84.48" width="552.96" fill="#ffffff" height="552.959979" y="-204.479997" fill-opacity="1"/></g></g></g><g clip-path="url(#2a54502a86)"><g transform="matrix(1, 0, 0, 1, 230, 38)"><g clip-path="url(#f448062caa)"><g clip-path="url(#7421417521)"><path fill="#ffffff" d="M 58.214844 308.003906 L 0.203125 308.003906 L 0.203125 0.28125 L 58.214844 0.28125 Z M 58.214844 308.003906 " fill-opacity="1" fill-rule="nonzero"/></g></g></g></g><g clip-path="url(#6c17ac3567)"><g transform="matrix(1, 0, 0, 1, 297, 107)"><g clip-path="url(#fdab8cf54c)"><g clip-path="url(#96a66ee694)"><path fill="#ffffff" d="M 58.21875 0.179688 L 58.21875 169.902344 L 0.210938 169.902344 L 0.210938 0.179688 Z M 58.21875 0.179688 " fill-opacity="1" fill-rule="nonzero"/></g></g></g></g></svg>