<svg xmlns="http://www.w3.org/2000/svg" xmlns:xlink="http://www.w3.org/1999/xlink" width="512" zoomAndPan="magnify" viewBox="0 0 384 383.999986" height="512" preserveAspectRatio="xMidYMid meet" version="1.0"><defs><clipPath id="d340aebe00"><path d="M 0 0 L 383.976562 0 L 383.976562 383.976562 L 0 383.976562 Z M 0 0 " clip-rule="nonzero"/></clipPath><clipPath id="c5a8e767c3"><path d="M 191.988281 0 C 85.957031 0 0 85.957031 0 191.988281 C 0 298.023438 85.957031 383.976562 191.988281 383.976562 C 298.023438 383.976562 383.976562 298.023438 383.976562 191.988281 C 383.976562 85.957031 298.023438 0 191.988281 0 Z M 191.988281 0 " clip-rule="nonzero"/></clipPath><clipPath id="e1e4264566"><path d="M 0 0 L 383.976562 0 L 383.976562 383.976562 L 0 383.976562 Z M 0 0 " clip-rule="nonzero"/></clipPath><clipPath id="72518c28ea"><path d="M 191.988281 0 C 85.957031 0 0 85.957031 0 191.988281 C 0 298.023438 85.957031 383.976562 191.988281 383.976562 C 298.023438 383.976562 383.976562 298.023438 383.976562 191.988281 C 383.976562 85.957031 298.023438 0 191.988281 0 Z M 191.988281 0 " clip-rule="nonzero"/></clipPath><clipPath id="22431d9ea3"><rect x="0" width="384" y="0" height="384"/></clipPath><clipPath id="73c1218046"><path d="M 95.074219 70.835938 L 167.75 70.835938 L 167.75 313 L 95.074219 313 Z M 95.074219 70.835938 " clip-rule="nonzero"/></clipPath><clipPath id="a83cf1420b"><path d="M 216.199219 70.835938 L 288.875 70.835938 L 288.875 313 L 216.199219 313 Z M 216.199219 70.835938 " clip-rule="nonzero"/></clipPath></defs><g clip-path="url(#d340aebe00)"><g clip-path="url(#c5a8e767c3)"><g><g clip-path="url(#22431d9ea3)"><g clip-path="url(#e1e4264566)"><g clip-path="url(#72518c28ea)"><path fill="#676767" d="M 0 0 L 383.976562 0 L 383.976562 383.976562 L 0 383.976562 Z M 0 0 " fill-opacity="1" fill-rule="nonzero"/></g></g></g></g></g></g><g clip-path="url(#73c1218046)"><path fill="#ffffff" d="M 95.074219 70.835938 L 167.75 70.835938 L 167.75 312.992188 L 95.074219 312.992188 Z M 95.074219 70.835938 " fill-opacity="1" fill-rule="nonzero"/></g><g clip-path="url(#a83cf1420b)"><path fill="#ffffff" d="M 216.199219 70.835938 L 288.875 70.835938 L 288.875 312.992188 L 216.199219 312.992188 Z M 216.199219 70.835938 " fill-opacity="1" fill-rule="nonzero"/></g></svg>