<svg xmlns="http://www.w3.org/2000/svg" xmlns:xlink="http://www.w3.org/1999/xlink" width="512" zoomAndPan="magnify" viewBox="0 0 384 383.999986" height="512" preserveAspectRatio="xMidYMid meet" version="1.0"><defs><clipPath id="5f3135f134"><path d="M 0 0 L 383.976562 0 L 383.976562 383.976562 L 0 383.976562 Z M 0 0 " clip-rule="nonzero"/></clipPath><clipPath id="e142a6e85b"><path d="M 191.988281 0 C 85.957031 0 0 85.957031 0 191.988281 C 0 298.023438 85.957031 383.976562 191.988281 383.976562 C 298.023438 383.976562 383.976562 298.023438 383.976562 191.988281 C 383.976562 85.957031 298.023438 0 191.988281 0 Z M 191.988281 0 " clip-rule="nonzero"/></clipPath><clipPath id="44dc8dcfb2"><path d="M 0 0 L 383.976562 0 L 383.976562 383.976562 L 0 383.976562 Z M 0 0 " clip-rule="nonzero"/></clipPath><clipPath id="0f219d2c1a"><path d="M 191.988281 0 C 85.957031 0 0 85.957031 0 191.988281 C 0 298.023438 85.957031 383.976562 191.988281 383.976562 C 298.023438 383.976562 383.976562 298.023438 383.976562 191.988281 C 383.976562 85.957031 298.023438 0 191.988281 0 Z M 191.988281 0 " clip-rule="nonzero"/></clipPath><clipPath id="bd32bd2d04"><rect x="0" width="384" y="0" height="384"/></clipPath><clipPath id="9e92528e9d"><path d="M 118.4375 70.835938 L 330.40625 70.835938 L 330.40625 313.085938 L 118.4375 313.085938 Z M 118.4375 70.835938 " clip-rule="nonzero"/></clipPath><clipPath id="044b4dd7eb"><path d="M 330.40625 191.960938 L 118.4375 313.085938 L 118.4375 70.835938 Z M 330.40625 191.960938 " clip-rule="nonzero"/></clipPath><clipPath id="26d01961ad"><path d="M 330.40625 191.960938 L 118.4375 313.085938 L 118.4375 70.835938 Z M 330.40625 191.960938 " clip-rule="nonzero"/></clipPath></defs><g clip-path="url(#5f3135f134)"><g clip-path="url(#e142a6e85b)"><g><g clip-path="url(#bd32bd2d04)"><g clip-path="url(#44dc8dcfb2)"><g clip-path="url(#0f219d2c1a)"><path fill="#676767" d="M 0 0 L 383.976562 0 L 383.976562 383.976562 L 0 383.976562 Z M 0 0 " fill-opacity="1" fill-rule="nonzero"/></g></g></g></g></g></g><g clip-path="url(#9e92528e9d)"><g clip-path="url(#044b4dd7eb)"><g clip-path="url(#26d01961ad)"><path fill="#ffffff" d="M 50.003906 17.542969 L 398.84375 17.542969 L 398.84375 366.382812 L 50.003906 366.382812 Z M 50.003906 17.542969 " fill-opacity="1" fill-rule="nonzero"/></g></g></g></svg>