<svg xmlns="http://www.w3.org/2000/svg" xmlns:xlink="http://www.w3.org/1999/xlink" width="512" zoomAndPan="magnify" viewBox="0 0 384 383.999986" height="512" preserveAspectRatio="xMidYMid meet" version="1.0"><defs><clipPath id="c2298292f1"><path d="M 0 0 L 383.976562 0 L 383.976562 383.976562 L 0 383.976562 Z M 0 0 " clip-rule="nonzero"/></clipPath><clipPath id="ff2e855b7b"><path d="M 191.988281 0 C 85.957031 0 0 85.957031 0 191.988281 C 0 298.023438 85.957031 383.976562 191.988281 383.976562 C 298.023438 383.976562 383.976562 298.023438 383.976562 191.988281 C 383.976562 85.957031 298.023438 0 191.988281 0 Z M 191.988281 0 " clip-rule="nonzero"/></clipPath><clipPath id="ecc36bde46"><path d="M 0 0 L 383.976562 0 L 383.976562 383.976562 L 0 383.976562 Z M 0 0 " clip-rule="nonzero"/></clipPath><clipPath id="48d5c48814"><path d="M 191.988281 0 C 85.957031 0 0 85.957031 0 191.988281 C 0 298.023438 85.957031 383.976562 191.988281 383.976562 C 298.023438 383.976562 383.976562 298.023438 383.976562 191.988281 C 383.976562 85.957031 298.023438 0 191.988281 0 Z M 191.988281 0 " clip-rule="nonzero"/></clipPath><clipPath id="dfb8969234"><rect x="0" width="384" y="0" height="384"/></clipPath><clipPath id="cc8ed87b31"><path d="M 70.855469 70.84375 L 313.105469 70.84375 L 313.105469 313.09375 L 70.855469 313.09375 Z M 70.855469 70.84375 " clip-rule="nonzero"/></clipPath></defs><g clip-path="url(#c2298292f1)"><g clip-path="url(#ff2e855b7b)"><g><g clip-path="url(#dfb8969234)"><g clip-path="url(#ecc36bde46)"><g clip-path="url(#48d5c48814)"><path fill="#676767" d="M 0 0 L 383.976562 0 L 383.976562 383.976562 L 0 383.976562 Z M 0 0 " fill-opacity="1" fill-rule="nonzero"/></g></g></g></g></g></g><g clip-path="url(#cc8ed87b31)"><path fill="#ffffff" d="M 17.558594 17.546875 L 366.398438 17.546875 L 366.398438 366.386719 L 17.558594 366.386719 Z M 17.558594 17.546875 " fill-opacity="1" fill-rule="nonzero"/></g></svg>