<?xml version="1.0" standalone="no"?>
<!DOCTYPE svg PUBLIC "-//W3C//DTD SVG 20010904//EN"
 "http://www.w3.org/TR/2001/REC-SVG-20010904/DTD/svg10.dtd">
<svg version="1.0" xmlns="http://www.w3.org/2000/svg"
 width="1600.000000pt" height="1600.000000pt" viewBox="0 0 1600.000000 1600.000000"
 preserveAspectRatio="xMidYMid meet">

<g transform="translate(0.000000,1600.000000) scale(0.100000,-0.100000)"
fill="#000000" stroke="none">
<path d="M15995 14210 c0 -987 1 -1391 2 -898 2 494 2 1302 0 1795 -1 494 -2
90 -2 -897z"/>
<path d="M5345 12225 c0 -984 1 -1386 2 -892 2 494 2 1300 0 1790 -1 491 -2
87 -2 -898z"/>
<path d="M10655 12225 c0 -984 1 -1386 2 -892 2 494 2 1300 0 1790 -1 491 -2
87 -2 -898z"/>
<path d="M5345 3775 c0 -984 1 -1386 2 -892 2 494 2 1300 0 1790 -1 491 -2 87
-2 -898z"/>
<path d="M10655 3775 c0 -984 1 -1386 2 -892 2 494 2 1300 0 1790 -1 491 -2
87 -2 -898z"/>
<path d="M15995 1790 c0 -987 1 -1391 2 -898 2 494 2 1302 0 1795 -1 494 -2
90 -2 -897z"/>
<path d="M5 3558 c-3 -7 -4 -812 -3 -1788 l3 -1775 3 1782 2 1783 1668 3 1667
2 -1668 3 c-1327 1 -1669 -1 -1672 -10z"/>
</g>
</svg>
