<svg xmlns="http://www.w3.org/2000/svg" xmlns:xlink="http://www.w3.org/1999/xlink" width="512" zoomAndPan="magnify" viewBox="0 0 384 383.999986" height="512" preserveAspectRatio="xMidYMid meet" version="1.0"><defs><clipPath id="ab76a25367"><path d="M 210.566406 0.898438 L 216.683594 30.679688 C 228.523438 32.492188 240.125 35.59375 251.28125 39.949219 L 271.46875 17.21875 C 282.761719 22.351562 293.535156 28.574219 303.628906 35.785156 L 294.039062 64.636719 C 303.382812 72.121094 311.878906 80.613281 319.367188 89.960938 L 348.210938 80.363281 C 355.425781 90.460938 361.644531 101.234375 366.78125 112.53125 L 344.050781 132.71875 C 348.402344 143.875 351.511719 155.476562 353.320312 167.3125 L 383.097656 173.429688 C 384.300781 185.78125 384.300781 198.21875 383.097656 210.570312 L 353.320312 216.683594 C 351.511719 228.523438 348.402344 240.125 344.050781 251.28125 L 366.78125 271.46875 C 361.644531 282.765625 355.425781 293.53125 348.210938 303.628906 L 319.367188 294.039062 C 311.878906 303.378906 303.382812 311.878906 294.039062 319.367188 L 303.628906 348.210938 C 293.535156 355.425781 282.761719 361.640625 271.46875 366.78125 L 251.28125 344.050781 C 240.125 348.398438 228.523438 351.507812 216.683594 353.320312 L 210.566406 383.101562 C 198.21875 384.300781 185.78125 384.300781 173.429688 383.101562 L 167.3125 353.320312 C 155.472656 351.507812 143.871094 348.398438 132.714844 344.050781 L 112.523438 366.78125 C 101.234375 361.640625 90.464844 355.425781 80.367188 348.210938 L 89.960938 319.367188 C 80.613281 311.878906 72.117188 303.378906 64.628906 294.039062 L 35.785156 303.628906 C 28.574219 293.53125 22.351562 282.765625 17.210938 271.46875 L 39.941406 251.28125 C 35.59375 240.125 32.484375 228.523438 30.675781 216.683594 L 0.898438 210.570312 C -0.300781 198.21875 -0.300781 185.78125 0.898438 173.429688 L 30.675781 167.3125 C 32.484375 155.476562 35.59375 143.875 39.941406 132.71875 L 17.210938 112.53125 C 22.351562 101.234375 28.574219 90.460938 35.785156 80.363281 L 64.628906 89.960938 C 72.117188 80.613281 80.613281 72.121094 89.960938 64.636719 L 80.367188 35.785156 C 90.464844 28.574219 101.234375 22.351562 112.523438 17.21875 L 132.714844 39.949219 C 143.871094 35.59375 155.472656 32.492188 167.3125 30.679688 L 173.429688 0.898438 C 185.78125 -0.300781 198.21875 -0.300781 210.566406 0.898438 Z M 192 72.007812 C 125.769531 72.007812 72.007812 125.773438 72.007812 191.996094 C 72.007812 258.226562 125.769531 311.992188 192 311.992188 C 258.226562 311.992188 311.992188 258.226562 311.992188 191.996094 C 311.992188 125.773438 258.226562 72.007812 192 72.007812 Z M 192 72.007812 " clip-rule="nonzero"/></clipPath><clipPath id="f4ab9765f0"><path d="M 0 0 L 384 0 L 384 384 L 0 384 Z M 0 0 " clip-rule="nonzero"/></clipPath><clipPath id="63652ebb4c"><path d="M 210.566406 0.898438 L 216.683594 30.679688 C 228.523438 32.492188 240.125 35.59375 251.28125 39.949219 L 271.46875 17.21875 C 282.761719 22.351562 293.535156 28.574219 303.628906 35.785156 L 294.039062 64.636719 C 303.382812 72.121094 311.878906 80.613281 319.367188 89.960938 L 348.210938 80.363281 C 355.425781 90.460938 361.644531 101.234375 366.78125 112.53125 L 344.050781 132.71875 C 348.402344 143.875 351.511719 155.476562 353.320312 167.3125 L 383.097656 173.429688 C 384.300781 185.78125 384.300781 198.21875 383.097656 210.570312 L 353.320312 216.683594 C 351.511719 228.523438 348.402344 240.125 344.050781 251.28125 L 366.78125 271.46875 C 361.644531 282.765625 355.425781 293.53125 348.210938 303.628906 L 319.367188 294.039062 C 311.878906 303.378906 303.382812 311.878906 294.039062 319.367188 L 303.628906 348.210938 C 293.535156 355.425781 282.761719 361.640625 271.46875 366.78125 L 251.28125 344.050781 C 240.125 348.398438 228.523438 351.507812 216.683594 353.320312 L 210.566406 383.101562 C 198.21875 384.300781 185.78125 384.300781 173.429688 383.101562 L 167.3125 353.320312 C 155.472656 351.507812 143.871094 348.398438 132.714844 344.050781 L 112.523438 366.78125 C 101.234375 361.640625 90.464844 355.425781 80.367188 348.210938 L 89.960938 319.367188 C 80.613281 311.878906 72.117188 303.378906 64.628906 294.039062 L 35.785156 303.628906 C 28.574219 293.53125 22.351562 282.765625 17.210938 271.46875 L 39.941406 251.28125 C 35.59375 240.125 32.484375 228.523438 30.675781 216.683594 L 0.898438 210.570312 C -0.300781 198.21875 -0.300781 185.78125 0.898438 173.429688 L 30.675781 167.3125 C 32.484375 155.476562 35.59375 143.875 39.941406 132.71875 L 17.210938 112.53125 C 22.351562 101.234375 28.574219 90.460938 35.785156 80.363281 L 64.628906 89.960938 C 72.117188 80.613281 80.613281 72.121094 89.960938 64.636719 L 80.367188 35.785156 C 90.464844 28.574219 101.234375 22.351562 112.523438 17.21875 L 132.714844 39.949219 C 143.871094 35.59375 155.472656 32.492188 167.3125 30.679688 L 173.429688 0.898438 C 185.78125 -0.300781 198.21875 -0.300781 210.566406 0.898438 Z M 192 72.007812 C 125.769531 72.007812 72.007812 125.773438 72.007812 191.996094 C 72.007812 258.226562 125.769531 311.992188 192 311.992188 C 258.226562 311.992188 311.992188 258.226562 311.992188 191.996094 C 311.992188 125.773438 258.226562 72.007812 192 72.007812 Z M 192 72.007812 " clip-rule="nonzero"/></clipPath><clipPath id="9dc69d3060"><rect x="0" width="384" y="0" height="384"/></clipPath></defs><g clip-path="url(#ab76a25367)"><g><g clip-path="url(#9dc69d3060)"><g clip-path="url(#f4ab9765f0)"><g clip-path="url(#63652ebb4c)"><rect x="-84.48" width="552.96" fill="#ffffff" height="552.959979" y="-84.479997" fill-opacity="1"/></g></g></g></g></g></svg>