<svg xmlns="http://www.w3.org/2000/svg" xmlns:xlink="http://www.w3.org/1999/xlink" width="512" zoomAndPan="magnify" viewBox="0 0 384 383.999986" height="512" preserveAspectRatio="xMidYMid meet" version="1.0"><defs><clipPath id="27cd73d2e0"><path d="M 84.5625 0 L 383.996094 299.433594 L 299.429688 384 L -0.00390625 84.566406 Z M 84.5625 0 " clip-rule="nonzero"/></clipPath><clipPath id="9b23de9a93"><path d="M 0 0 L 384 0 L 384 384 L 0 384 Z M 0 0 " clip-rule="nonzero"/></clipPath><clipPath id="bb517b30fb"><path d="M 84.5625 0 L 383.996094 299.433594 L 299.429688 384 L -0.00390625 84.566406 Z M 84.5625 0 " clip-rule="nonzero"/></clipPath><clipPath id="45b509141c"><rect x="0" width="384" y="0" height="384"/></clipPath><clipPath id="76639f56bd"><path d="M 383.992188 84.5625 L 84.5625 383.996094 L -0.0078125 299.429688 L 299.425781 -0.00390625 Z M 383.992188 84.5625 " clip-rule="nonzero"/></clipPath><clipPath id="5978162e19"><path d="M 0 0 L 384 0 L 384 384 L 0 384 Z M 0 0 " clip-rule="nonzero"/></clipPath><clipPath id="8e1facdaf5"><path d="M 383.992188 84.5625 L 84.5625 383.996094 L -0.0078125 299.429688 L 299.425781 -0.00390625 Z M 383.992188 84.5625 " clip-rule="nonzero"/></clipPath><clipPath id="23ce49e21b"><rect x="0" width="384" y="0" height="384"/></clipPath></defs><g clip-path="url(#27cd73d2e0)"><g><g clip-path="url(#45b509141c)"><g clip-path="url(#9b23de9a93)"><g clip-path="url(#bb517b30fb)"><path fill="#ffffff" d="M 84.5625 0 L 383.851562 299.289062 L 299.285156 383.855469 L -0.00390625 84.566406 Z M 84.5625 0 " fill-opacity="1" fill-rule="nonzero"/></g></g></g></g></g><g clip-path="url(#76639f56bd)"><g><g clip-path="url(#23ce49e21b)"><g clip-path="url(#5978162e19)"><g clip-path="url(#8e1facdaf5)"><path fill="#ffffff" d="M 383.992188 84.5625 L 84.707031 383.851562 L 0.136719 299.285156 L 299.425781 -0.00390625 Z M 383.992188 84.5625 " fill-opacity="1" fill-rule="nonzero"/></g></g></g></g></g></svg>