<svg xmlns="http://www.w3.org/2000/svg" xmlns:xlink="http://www.w3.org/1999/xlink" width="512" zoomAndPan="magnify" viewBox="0 0 384 383.999986" height="512" preserveAspectRatio="xMidYMid meet" version="1.0"><defs><clipPath id="e61ae90c2b"><path d="M 38.398438 0 L 153.601562 0 L 153.601562 384 L 38.398438 384 Z M 38.398438 0 " clip-rule="nonzero"/></clipPath><clipPath id="e077462087"><path d="M 0.398438 0 L 115.601562 0 L 115.601562 384 L 0.398438 384 Z M 0.398438 0 " clip-rule="nonzero"/></clipPath><clipPath id="7e07ac8ad4"><rect x="0" width="116" y="0" height="384"/></clipPath><clipPath id="211682dbf6"><path d="M 230.398438 0 L 345.601562 0 L 345.601562 384 L 230.398438 384 Z M 230.398438 0 " clip-rule="nonzero"/></clipPath><clipPath id="7d7e70ed1f"><path d="M 0.398438 0 L 115.601562 0 L 115.601562 384 L 0.398438 384 Z M 0.398438 0 " clip-rule="nonzero"/></clipPath><clipPath id="08d6a4338b"><rect x="0" width="116" y="0" height="384"/></clipPath></defs><g clip-path="url(#e61ae90c2b)"><g transform="matrix(1, 0, 0, 1, 38, 0)"><g clip-path="url(#7e07ac8ad4)"><g clip-path="url(#e077462087)"><path fill="#ffffff" d="M 0.398438 0 L 115.601562 0 L 115.601562 383.851562 L 0.398438 383.851562 Z M 0.398438 0 " fill-opacity="1" fill-rule="nonzero"/></g></g></g></g><g clip-path="url(#211682dbf6)"><g transform="matrix(1, 0, 0, 1, 230, 0)"><g clip-path="url(#08d6a4338b)"><g clip-path="url(#7d7e70ed1f)"><path fill="#ffffff" d="M 0.398438 0 L 115.601562 0 L 115.601562 383.851562 L 0.398438 383.851562 Z M 0.398438 0 " fill-opacity="1" fill-rule="nonzero"/></g></g></g></g></svg>