<?xml version="1.0" encoding="UTF-8"?>
<svg version="1.1" xmlns="http://www.w3.org/2000/svg" width="1600" height="1600">
<path d="M0 0 C5.84463549 -0.10735045 11.60809068 0.00816568 17.43511868 0.49596977 C25.1006685 1.0622725 32.73036043 1.13999446 40.4131012 1.12698364 C41.92203739 1.12814059 43.43097329 1.12973248 44.93990862 1.13171518 C49.05862602 1.13586544 53.17731998 1.13384241 57.29603742 1.13073099 C61.77584494 1.12843921 66.25564874 1.13192846 70.73545551 1.13463593 C79.57243177 1.13904265 88.40939962 1.13802032 97.24637619 1.13516669 C104.53624186 1.13294434 111.82610477 1.13290587 119.11597061 1.13431931 C120.1646025 1.13452155 121.21323439 1.13472378 122.293643 1.13493215 C124.42993905 1.13535277 126.56623511 1.13577743 128.70253116 1.13620608 C150.21384949 1.14022726 171.7251627 1.13669853 193.23648024 1.13056505 C208.66858137 1.12619702 224.10068159 1.12367285 239.53278329 1.12257662 C333.78502055 1.11567323 428.03730054 1.10023206 522.2890625 0.7734375 C523.06399818 0.7707508 523.83893386 0.7680641 524.63735244 0.76529598 C547.25314667 0.68661696 569.86890489 0.59902611 592.48465556 0.50878882 C616.88949777 0.41141932 641.29434359 0.3153559 665.69921875 0.2265625 C666.43564048 0.22387832 667.17206221 0.22119413 667.93079975 0.21842861 C749.4365614 -0.07797081 830.9425816 -0.11580953 912.44881088 -0.12283063 C924.99809791 -0.12397131 937.54738293 -0.12712997 950.0966692 -0.13157158 C967.4401755 -0.1376715 984.78367597 -0.13981801 1002.12718302 -0.13556135 C1003.86126459 -0.13514329 1005.59534615 -0.13472924 1007.32942772 -0.13431931 C1008.60403671 -0.13401615 1008.60403671 -0.13401615 1009.90439538 -0.13370688 C1015.68957936 -0.13256162 1021.4747595 -0.13379386 1027.25994301 -0.13615799 C1061.36958226 -0.14902368 1095.46083024 0.02106952 1129.56524754 0.6467123 C1146.1854134 0.95087284 1162.7928003 1.12492417 1179.41563225 1.04459953 C1183.34133801 1.02616262 1187.26702683 1.01639903 1191.19276428 1.00868225 C1201.57658424 0.98691309 1211.96035326 0.95342275 1222.34411484 0.91250378 C1229.32515259 0.88504179 1236.30615489 0.86327298 1243.28724009 0.85249335 C1246.55175646 0.84708086 1249.81613349 0.83661802 1253.08061028 0.81910515 C1256.65786701 0.79996028 1260.23495495 0.79300825 1263.81225586 0.78881836 C1264.86369278 0.78005676 1265.9151297 0.77129517 1266.99842834 0.76226807 C1272.07086642 0.76907491 1276.25310707 0.96405223 1281 3 C1281 3.66 1281 4.32 1281 5 C1281.66 5 1282.32 5 1283 5 C1285.19424358 12.08715818 1285.27613469 18.71786261 1285.24165154 26.10231972 C1285.24437809 28.08126901 1285.24437809 28.08126901 1285.24715972 30.10019708 C1285.25191377 33.76307007 1285.24417996 37.42582623 1285.23439862 41.08868532 C1285.22595913 45.07325049 1285.22913545 49.05780927 1285.23081791 53.04238069 C1285.23214529 60.02613255 1285.22596525 67.00984669 1285.21486855 73.9935894 C1285.19837531 84.37847878 1285.19330808 94.7633519 1285.19041403 105.14825283 C1285.1844901 124.77252058 1285.16477099 144.39675995 1285.14056377 164.02101256 C1285.12191129 179.17094183 1285.10648207 194.3208711 1285.09332657 209.47080612 C1285.08950438 213.8296348 1285.08566701 218.18846346 1285.08182538 222.54729211 C1285.08087126 223.63085561 1285.07991714 224.71441911 1285.07893412 225.83081786 C1285.05196893 256.31083171 1285.02057295 286.79083841 1284.98036003 317.27083778 C1284.97884601 318.42014077 1284.977332 319.56944375 1284.9757721 320.7535741 C1284.96808969 326.57891853 1284.96037502 332.40426292 1284.95265304 338.2296073 C1284.95035379 339.96505963 1284.95035379 339.96505963 1284.9480081 341.73557159 C1284.94490812 344.0752412 1284.94180544 346.41491081 1284.93870004 348.75458041 C1284.8904771 385.1752508 1284.85850579 421.59590494 1284.83886719 458.01660156 C1284.81679908 498.91850001 1284.78129957 539.82035678 1284.7267276 580.72222555 C1284.72096159 585.08042544 1284.71524719 589.4386254 1284.70956802 593.79682541 C1284.70745833 595.40652248 1284.70745833 595.40652248 1284.70530603 597.04873869 C1284.68295412 614.34201125 1284.67342084 631.63526827 1284.6682932 648.92855349 C1284.66278712 666.29541117 1284.64241345 683.66220252 1284.60686211 701.02902509 C1284.58614659 711.35469726 1284.576558 721.68024089 1284.58275466 732.00593274 C1284.58579267 738.89614004 1284.57442315 745.78622464 1284.55115604 752.67639312 C1284.53829521 756.60675866 1284.5318379 760.53685483 1284.54284512 764.46723218 C1284.55453405 768.69485724 1284.53556405 772.92177983 1284.51339531 777.14936256 C1284.52172732 778.37789011 1284.53005934 779.60641766 1284.53864384 780.87217331 C1284.47750911 787.16284392 1284.37000901 791.28250052 1280 796 C1276.69169923 797.65415039 1273.00291892 797.10614423 1269.36791992 797.07568359 C1268.46604509 797.07254276 1267.56417027 797.06940193 1266.6349659 797.06616592 C1264.65514306 797.05924743 1262.67532656 797.05030379 1260.6955204 797.03963089 C1255.2324229 797.01156916 1249.76931197 797.00248798 1244.30615234 796.99511719 C1243.14690026 796.99350649 1241.98764818 796.99189579 1240.79326725 796.99023628 C1228.74962146 796.98322747 1216.70816375 797.10473291 1204.66547012 797.24594879 C1200.9826336 797.28912872 1197.29977914 797.33023387 1193.61691284 797.37078857 C1183.60853532 797.4817792 1173.60020631 797.59475471 1163.59204102 797.72363281 C1157.34467852 797.80372548 1151.09727287 797.87394406 1144.84972191 797.93757248 C1142.50092399 797.96337727 1140.15216358 797.99288592 1137.80346107 798.02626419 C1134.56471878 798.07196454 1131.32607707 798.10509225 1128.0871582 798.13525391 C1127.13326202 798.1517952 1126.17936584 798.16833649 1125.19656372 798.18537903 C1120.69954947 798.21433125 1117.05482374 798.21214126 1113 796 C1107.8171377 790.8171377 1110.87164069 768.98532924 1110.87091869 761.94477904 C1110.87377108 759.39593535 1110.87671666 756.84709177 1110.87974548 754.29824829 C1110.87986655 751.56792154 1110.87847494 748.83759603 1110.87715632 746.10726964 C1110.87509163 740.18508496 1110.87671082 734.26291036 1110.88079453 728.34072685 C1110.88684982 719.53476898 1110.88712845 710.72881742 1110.88625254 701.92285785 C1110.88494102 687.10712533 1110.88827099 672.29139727 1110.89426994 657.47566605 C1110.90019219 642.8117025 1110.90403694 628.14774082 1110.90512276 613.48377609 C1110.9051915 612.57113592 1110.90526024 611.65849575 1110.90533106 610.71819981 C1110.9056694 606.08313564 1110.90597078 601.44807146 1110.90625793 596.81300728 C1110.9083569 564.00489421 1110.91509024 531.19678357 1110.92456055 498.38867188 C1110.93374871 466.52115899 1110.9408305 434.65364676 1110.94506836 402.78613281 C1110.94519989 401.80339133 1110.94533141 400.82064985 1110.94546692 399.80812833 C1110.94678547 389.93880246 1110.94806128 380.06947659 1110.94930578 370.20015071 C1110.95184182 350.09619215 1110.95466307 329.99223364 1110.95765686 309.88827515 C1110.95779415 308.96398001 1110.95793144 308.03968486 1110.95807289 307.08738078 C1110.96726955 245.39158618 1110.98311428 183.69579292 1111 122 C1110.34 122 1109.68 122 1109 122 C1108.67 121.34 1108.34 120.68 1108 120 C1105.02077407 119.97316013 1102.04178705 119.95323963 1099.0625 119.9375 C1098.21236328 119.92912109 1097.36222656 119.92074219 1096.48632812 119.91210938 C1095.67744141 119.90888672 1094.86855469 119.90566406 1094.03515625 119.90234375 C1093.2862915 119.89710693 1092.53742676 119.89187012 1091.76586914 119.88647461 C1089.97332261 119.80658248 1089.97332261 119.80658248 1089 121 C1087.43681442 121.15713217 1085.8668768 121.24782528 1084.29708749 121.31108046 C1083.29946273 121.35227138 1082.30183796 121.3934623 1081.27398215 121.43590143 C1080.18452603 121.47455449 1079.09506992 121.51320756 1077.97259998 121.55303192 C1076.84412309 121.59512739 1075.71564619 121.63722285 1074.55297302 121.68059394 C1062.84746376 122.08749178 1051.14976756 122.1503169 1039.43840027 122.15148926 C1037.07387339 122.15535211 1034.70934717 122.15964183 1032.34482175 122.16431475 C1025.92298983 122.17581388 1019.50116494 122.18140508 1013.07932484 122.18594956 C1006.8394138 122.19085141 1000.59951067 122.20132432 994.35960593 122.21120207 C981.60243898 122.23125928 968.84527029 122.24700452 956.08809471 122.26036072 C938.62394179 122.27870301 921.15980182 122.30341015 903.69565932 122.32973462 C895.52761504 122.34203782 887.35957031 122.35403221 879.19152546 122.36594391 C878.37401171 122.36713643 877.55649795 122.36832896 876.71421106 122.36955762 C857.29263118 122.39781567 837.87104755 122.42303559 818.44946289 122.44775391 C817.60081029 122.4488351 816.75215768 122.4499163 815.87778833 122.45103026 C804.70148337 122.46526601 793.52517828 122.47939389 782.34887314 122.49348927 C766.92276747 122.51294537 751.49666193 122.5324974 736.07055664 122.55224609 C734.80446242 122.55386529 734.80446242 122.55386529 733.51279054 122.5555172 C714.17582133 122.5802632 694.83885376 122.60587355 675.50188923 122.63405609 C674.68496375 122.63524634 673.86803828 122.63643659 673.02635749 122.63766291 C664.86075452 122.64957873 656.69515177 122.6616384 648.52954933 122.67391312 C631.10898503 122.7000672 613.68842271 122.72374244 596.26784832 122.74208651 C583.54331753 122.75552445 570.81879448 122.77225456 558.09427216 122.79218161 C551.23212832 122.80282794 544.36999173 122.81195681 537.50784111 122.81687737 C508.06277402 122.83899534 478.63628772 123.05747353 449.19787842 123.70955452 C432.67598642 124.07440543 416.15872512 124.15846894 399.6333046 124.12877274 C397.22228188 124.12485334 394.81126337 124.12288791 392.40023804 124.12130737 C367.99803964 124.10257276 343.60630634 123.86572862 319.20776367 123.42626953 C316.5486707 123.37889387 313.88957575 123.33172833 311.23046875 123.28515625 C310.55391928 123.27329285 309.8773698 123.26142944 309.18031883 123.24920654 C295.30450627 123.00965807 281.42801151 122.87391687 267.55078125 122.74609375 C265.31042985 122.72514801 263.07007849 122.70419769 260.82972717 122.6832428 C250.79557573 122.59013023 240.76141392 122.50044387 230.72715664 122.41948795 C226.54977007 122.38489471 222.37242146 122.34669548 218.19507408 122.30768013 C216.24141512 122.29028574 214.28774098 122.27450896 212.33405495 122.26048088 C185.06354866 122.06354866 185.06354866 122.06354866 183 120 C181.14712498 119.92773498 179.29166122 119.9161878 177.4375 119.9375 C176.42558594 119.94652344 175.41367187 119.95554687 174.37109375 119.96484375 C173.58863281 119.97644531 172.80617188 119.98804688 172 120 C171.67 120.66 171.34 121.32 171 122 C170.34 122 169.68 122 169 122 C169.00515373 122.92298291 169.01030746 123.84596582 169.01561737 124.79691792 C169.49606947 211.11728036 169.92036834 297.43878486 170.12494534 505.75700778 C170.125 508.18741318 170.12510806 510.61781857 170.12523127 513.04822397 C170.12880657 588.36726714 170.03855028 663.68542042 169.73828125 739.00390625 C169.73221418 740.53204846 169.72614723 742.06019068 169.72008038 743.58833289 C169.60248537 773.13801532 169.47405 802.6876335 169.32020697 832.23715063 C169.31670222 832.9104644 169.31319748 833.58377817 169.30958652 834.27749538 C169.30609884 834.9474786 169.30261116 835.61746182 169.29901779 836.30774755 C169.25553141 844.69449952 169.21520509 853.08126706 169.17514509 861.468036 C169.14079685 868.58183305 169.10169882 875.69558213 169.05866694 882.80933172 C169.03369972 887.10033009 169.01290551 891.39134113 168.99328589 895.68236697 C168.98342102 897.64463057 168.97177119 899.60688616 168.95817208 901.56912744 C168.93994708 904.22717721 168.92804875 906.8851835 168.91770935 909.54327393 C168.91090552 910.3056172 168.90410169 911.06796047 168.89709169 911.85340506 C168.88773314 916.32429255 169.19173771 920.60024932 170 925 C172.51900322 927.51900322 179.22190983 926.45081488 182.59107971 926.56333923 C183.83594101 926.60570896 185.08080232 926.64807869 186.36338669 926.69173235 C202.8185385 927.20825491 219.27937281 927.07504395 235.74010909 926.99879324 C240.58159802 926.97768163 245.42310706 926.96315006 250.26461792 926.94807434 C257.54508756 926.92494705 264.8255472 926.90006612 272.10600359 926.87308853 C286.3869359 926.82046914 300.66787142 926.78449265 314.9488678 926.75462341 C317.20614352 926.74983661 319.46341924 926.7450495 321.72069496 926.74026209 C326.28612437 926.73063744 330.85155398 926.72111113 335.41698372 926.71164691 C347.09610665 926.6874099 358.77522801 926.66264043 370.4543457 926.63598633 C371.62447417 926.63332234 372.79460264 926.63065836 374.00018955 926.62791365 C393.03580995 926.58379245 412.07126712 926.51440446 431.10677724 926.43691314 C450.69191224 926.35785918 470.27696013 926.30915743 489.86224371 926.28796238 C501.92548516 926.27387773 513.98815374 926.23551023 526.05120546 926.16602176 C534.29694342 926.12070921 542.54241137 926.1045011 550.78826975 926.11150218 C555.54681895 926.11465018 560.30440522 926.10460307 565.06276512 926.05981445 C569.41521574 926.01911812 573.76608096 926.01507104 578.11863274 926.04059612 C579.6953017 926.04329107 581.27206316 926.03234422 582.84852444 926.00661332 C594.56081699 925.82616513 594.56081699 925.82616513 598.03734934 928.66171479 C600.43545354 932.23281697 601.62522254 935.89121803 601.62145996 940.21157837 C601.63827316 941.64126701 601.63827316 941.64126701 601.65542603 943.09983826 C601.64216278 944.11828323 601.62889954 945.13672821 601.61523438 946.18603516 C601.62078339 947.27971909 601.6263324 948.37340302 601.63204956 949.50022888 C601.64381147 953.09695954 601.61960679 956.69242093 601.59375 960.2890625 C601.59203816 962.79674217 601.59210533 965.30442364 601.59387207 967.81210327 C601.59222087 973.05912531 601.57414245 978.3058226 601.54199219 983.55273438 C601.50506669 989.60818376 601.49632331 995.66316039 601.5032897 1001.71870768 C601.50960589 1007.56109672 601.49860715 1013.40332104 601.47932434 1019.24567795 C601.4722979 1021.72477811 601.46916938 1024.2038925 601.47001648 1026.68300247 C601.46821769 1030.1465147 601.44682881 1033.60935752 601.41992188 1037.07275391 C601.42285248 1038.09524734 601.42578308 1039.11774078 601.42880249 1040.17121887 C601.34562897 1047.11458378 599.87387711 1051.18918433 596 1057 C593.31030273 1057.26464844 593.31030273 1057.26464844 589.93359375 1057.109375 C588.72638672 1057.05910156 587.51917969 1057.00882813 586.27539062 1056.95703125 C585.00888672 1056.88871094 583.74238281 1056.82039063 582.4375 1056.75 C581.16712891 1056.69714844 579.89675781 1056.64429688 578.58789062 1056.58984375 C569.1563244 1056.1563244 569.1563244 1056.1563244 568 1055 C565.33296568 1054.9001551 562.69177405 1054.86639188 560.02420807 1054.87415886 C559.17410186 1054.87270542 558.32399565 1054.87125198 557.44812864 1054.86975449 C554.56228483 1054.86606721 551.67649295 1054.86959345 548.79064941 1054.87301636 C546.71572419 1054.87186561 544.64079917 1054.87027841 542.56587458 1054.86828911 C536.83506744 1054.86408936 531.10427681 1054.86618938 525.37346959 1054.86927533 C519.20435677 1054.8715266 513.03524689 1054.86805119 506.86613464 1054.86529541 C495.4695946 1054.86109392 484.07306134 1054.86147468 472.67652147 1054.86420688 C462.14985102 1054.86671827 451.62318252 1054.86738108 441.09651184 1054.86618423 C440.39939327 1054.86610785 439.70227471 1054.86603146 438.98403134 1054.86595276 C436.1544994 1054.86564145 433.32496746 1054.86532305 430.49543552 1054.864993 C403.92944166 1054.8619311 377.36345119 1054.86471205 350.79745785 1054.8700899 C327.17340108 1054.87483582 303.54934969 1054.87441121 279.92529297 1054.86962891 C253.40919267 1054.86427915 226.89309537 1054.86214822 200.37699461 1054.86524117 C197.55249246 1054.86556191 194.72799031 1054.86587475 191.90348816 1054.86618423 C190.86022201 1054.86630285 190.86022201 1054.86630285 189.79587977 1054.86642386 C179.27349036 1054.86756335 168.7511031 1054.86622731 158.22871399 1054.86370468 C146.26933485 1054.86085192 134.30996208 1054.8616431 122.3505832 1054.86698543 C116.24224493 1054.86962362 110.13391765 1054.87062552 104.02557945 1054.86733627 C98.44345025 1054.86437572 92.86134229 1054.86596206 87.27921504 1054.87131383 C85.25030402 1054.87243905 83.22139124 1054.87184454 81.19248134 1054.86943804 C78.45355866 1054.86643639 75.71471058 1054.86947608 72.97579193 1054.87415886 C71.76968259 1054.87064711 71.76968259 1054.87064711 70.5392074 1054.86706442 C66.97425897 1054.54774184 66.97425897 1054.54774184 64 1056 C62.33570949 1056.09823937 60.66718069 1056.12973631 59 1056.125 C58.0925 1056.12757812 57.185 1056.13015625 56.25 1056.1328125 C54 1056 54 1056 53 1055 C51.65455673 1054.90214659 50.30407437 1054.87202015 48.95507812 1054.87060547 C48.09748901 1054.86745331 47.2398999 1054.86430115 46.35632324 1054.86105347 C44.95791199 1054.86408981 44.95791199 1054.86408981 43.53125 1054.8671875 C42.58060669 1054.86623077 41.62996338 1054.86527405 40.6505127 1054.86428833 C38.63631118 1054.86360643 36.62210748 1054.86546138 34.60791016 1054.86962891 C31.51329645 1054.87497702 28.4188279 1054.86968423 25.32421875 1054.86328125 C23.37239551 1054.86394203 21.42057236 1054.86522319 19.46875 1054.8671875 C18.53647583 1054.86516327 17.60420166 1054.86313904 16.64367676 1054.86105347 C15.35729309 1054.86578171 15.35729309 1054.86578171 14.04492188 1054.87060547 C13.28626831 1054.87140106 12.52761475 1054.87219666 11.74597168 1054.87301636 C9.97122688 1054.81078913 9.97122688 1054.81078913 9 1056 C3.26388889 1056.27314815 3.26388889 1056.27314815 1 1056 C0.34 1055.34 -0.32 1054.68 -1 1054 C-1 1053.01 -1 1052.02 -1 1051 C-1.66 1051 -2.32 1051 -3 1051 C-4.48150943 1048.03698114 -4.12575696 1045.38750378 -4.12649983 1042.07898188 C-4.12878965 1040.99117205 -4.12878965 1040.99117205 -4.13112573 1039.88138626 C-4.13506044 1037.42150696 -4.13179579 1034.96168788 -4.12863445 1032.50180817 C-4.12997953 1030.72473153 -4.13176252 1028.94765518 -4.13394669 1027.17057937 C-4.138706 1022.24576568 -4.13716563 1017.32097034 -4.13466892 1012.39615571 C-4.13304408 1007.05407195 -4.13716975 1001.71199225 -4.14057809 996.36990976 C-4.14574685 986.99350577 -4.14714675 977.61710695 -4.14612198 968.24070168 C-4.14460185 954.29807581 -4.1487481 940.35545569 -4.1539966 926.41283093 C-4.16368625 900.06776171 -4.16648205 873.72269468 -4.16705366 847.37762392 C-4.16711841 844.47004596 -4.16718635 841.56246801 -4.16725707 838.65489006 C-4.16727408 837.93340959 -4.16729108 837.21192912 -4.1673086 836.46858561 C-4.1677167 820.49528214 -4.16990545 804.52197907 -4.17241292 788.54867581 C-4.17344124 781.97573633 -4.17443125 775.40279684 -4.17542917 768.82985735 C-4.17553975 768.10365186 -4.17565034 767.37744637 -4.17576428 766.62923465 C-4.18209011 725.00306478 -4.18621321 683.37689517 -4.18575573 641.75072479 C-4.18573995 640.19226513 -4.18572422 638.63380548 -4.18570852 637.07534582 C-4.18563514 630.03868442 -4.18554697 623.00202302 -4.18545464 615.96536162 C-4.18541351 612.82739216 -4.18537337 609.68942271 -4.18533332 606.55145325 C-4.18531293 604.98084155 -4.18529191 603.41022986 -4.18527026 601.83961816 C-4.18458982 552.16114214 -4.19190996 502.48267324 -4.20581055 452.80419922 C-4.20931138 440.28589124 -4.21278076 427.76758325 -4.21607494 415.24927521 C-4.21627782 414.47853991 -4.21648069 413.70780461 -4.21668971 412.9137137 C-4.22290147 389.17153827 -4.22666964 365.42936341 -4.22793293 341.68718719 C-4.22797288 340.94214157 -4.22801283 340.19709595 -4.22805399 339.42947319 C-4.22890713 323.07657057 -4.22916851 306.72366798 -4.22888362 290.37076535 C-4.22878713 284.51990622 -4.22873509 278.66904709 -4.22870489 272.81818796 C-4.22869697 271.3625667 -4.22868677 269.90694544 -4.22867426 268.45132419 C-4.22849771 245.22663904 -4.23420529 222.00195999 -4.24282808 198.77727659 C-4.2517048 174.74658894 -4.2533123 150.7159124 -4.24651595 126.6852237 C-4.24280581 112.8172424 -4.24469604 98.94928778 -4.25445829 85.08130928 C-4.26042012 75.83482048 -4.25920556 66.58835119 -4.25198779 57.34186332 C-4.24807389 52.06235091 -4.24742251 46.78289046 -4.25544515 41.50338155 C-4.26266505 36.71052506 -4.26085806 31.91776432 -4.25152128 27.12491227 C-4.24978485 25.39217215 -4.25147671 23.65942475 -4.25682249 21.926692 C-4.26355084 19.59134785 -4.25817917 17.25634824 -4.24954766 14.92101812 C-4.24963588 13.62277093 -4.2497241 12.32452373 -4.249815 10.9869357 C-4 8 -4 8 -2 6 C-1.28591666 4.01643517 -0.61382258 2.01684563 0 0 Z " fill="#FEFEFE" transform="translate(160,272)"/>
<path d="M0 0 C1.68029297 0.02126953 1.68029297 0.02126953 3.39453125 0.04296875 C5.05548828 0.05263672 5.05548828 0.05263672 6.75 0.0625 C10.20703125 0.23046875 10.20703125 0.23046875 13.17038494 0.73230022 C18.50584103 1.51241126 23.86965734 1.37400222 29.2504034 1.36913395 C31.07583211 1.37339728 31.07583211 1.37339728 32.93813816 1.37774673 C36.31856306 1.38463858 39.69893852 1.38708791 43.07936691 1.38767415 C46.75596279 1.38940513 50.43254767 1.39689158 54.10913712 1.4036507 C60.55351175 1.4147043 66.99788248 1.42207815 73.44226456 1.42704964 C83.02483501 1.4344587 92.60739183 1.44754257 102.18995424 1.46179539 C118.30910651 1.48560951 134.42826121 1.50481219 150.54742241 1.52139473 C166.50944793 1.53783066 182.47146893 1.55631127 198.43348885 1.577528 C199.42563196 1.57884561 200.41777508 1.58016321 201.43998314 1.58152075 C206.47849263 1.58822275 211.51700206 1.59496134 216.55551148 1.60171401 C252.25144011 1.64948829 287.94737297 1.6926701 323.64331055 1.7331543 C358.3233267 1.7724968 393.00333932 1.81393428 427.68334961 1.8581543 C429.8638104 1.86093164 432.04427119 1.86370892 434.22473198 1.86648613 C451.94163808 1.88906307 469.65854399 1.91178473 487.37544986 1.93454149 C569.31930331 2.03969117 651.26316582 2.13426408 733.20703125 2.23046875 C733.20703125 145.45046875 733.20703125 288.67046875 733.20703125 436.23046875 C488.67703125 436.23046875 244.14703125 436.23046875 -7.79296875 436.23046875 C-7.79296875 294.99046875 -7.79296875 153.75046875 -7.79296875 8.23046875 C-7.13296875 8.23046875 -6.47296875 8.23046875 -5.79296875 8.23046875 C-5.66921875 7.28171875 -5.54546875 6.33296875 -5.41796875 5.35546875 C-4.62800872 1.40566858 -4.08704676 0.33725281 0 0 Z " fill="#FEFEFE" transform="translate(866.79296875,1163.76953125)"/>
<path d="M0 0 C0 0.66 0 1.32 0 2 C0.66 2 1.32 2 2 2 C5 6.38461538 5 6.38461538 5 9 C5.99 9 6.98 9 8 9 C8 9.66 8 10.32 8 11 C8.66 11 9.32 11 10 11 C11.625 12.375 11.625 12.375 13 14 C13 14.66 13 15.32 13 16 C13.66 16 14.32 16 15 16 C16.70993434 17.6222454 18.37347684 19.29413425 20 21 C20.598125 21.556875 21.19625 22.11375 21.8125 22.6875 C23 24 23 24 23 26 C23.66 26 24.32 26 25 26 C26.625 27.375 26.625 27.375 28 29 C28 29.66 28 30.32 28 31 C28.66 31 29.32 31 30 31 C31.625 32.375 31.625 32.375 33 34 C33 34.66 33 35.32 33 36 C33.66 36 34.32 36 35 36 C36.70993434 37.6222454 38.37347684 39.29413425 40 41 C40.598125 41.556875 41.19625 42.11375 41.8125 42.6875 C43 44 43 44 43 46 C43.66 46 44.32 46 45 46 C46.625 47.375 46.625 47.375 48 49 C48 49.66 48 50.32 48 51 C48.66 51 49.32 51 50 51 C51.625 52.375 51.625 52.375 53 54 C53 54.66 53 55.32 53 56 C53.66 56 54.32 56 55 56 C56.625 57.375 56.625 57.375 58 59 C58 59.66 58 60.32 58 61 C58.66 61 59.32 61 60 61 C61.625 62.375 61.625 62.375 63 64 C63 64.66 63 65.32 63 66 C63.66 66 64.32 66 65 66 C66.625 67.375 66.625 67.375 68 69 C68 69.66 68 70.32 68 71 C68.66 71 69.32 71 70 71 C71.625 72.375 71.625 72.375 73 74 C73 74.66 73 75.32 73 76 C73.66 76 74.32 76 75 76 C76.625 77.375 76.625 77.375 78 79 C78 79.66 78 80.32 78 81 C78.66 81 79.32 81 80 81 C81.625 82.375 81.625 82.375 83 84 C83 84.66 83 85.32 83 86 C83.66 86 84.32 86 85 86 C86.625 87.375 86.625 87.375 88 89 C88 89.66 88 90.32 88 91 C88.66 91 89.32 91 90 91 C91.625 92.375 91.625 92.375 93 94 C93 94.66 93 95.32 93 96 C93.66 96 94.32 96 95 96 C96.625 97.375 96.625 97.375 98 99 C98 99.66 98 100.32 98 101 C98.66 101 99.32 101 100 101 C105 106.47619048 105 106.47619048 105 109 C105.99 109 106.98 109 108 109 C108 109.66 108 110.32 108 111 C108.66 111 109.32 111 110 111 C115 116.47619048 115 116.47619048 115 119 C115.99 119 116.98 119 118 119 C118 119.66 118 120.32 118 121 C118.66 121 119.32 121 120 121 C125 126.47619048 125 126.47619048 125 129 C125.99 129 126.98 129 128 129 C128 129.66 128 130.32 128 131 C128.66 131 129.32 131 130 131 C135 136.47619048 135 136.47619048 135 139 C135.99 139 136.98 139 138 139 C138 139.66 138 140.32 138 141 C138.66 141 139.32 141 140 141 C141.625 142.375 141.625 142.375 143 144 C143 144.66 143 145.32 143 146 C143.66 146 144.32 146 145 146 C145 146.99 145 147.98 145 149 C145.99 149 146.98 149 148 149 C148 149.66 148 150.32 148 151 C148.66 151 149.32 151 150 151 C151.625 152.375 151.625 152.375 153 154 C153 154.66 153 155.32 153 156 C153.66 156 154.32 156 155 156 C155 156.99 155 157.98 155 159 C155.99 159 156.98 159 158 159 C158 159.66 158 160.32 158 161 C158.66 161 159.32 161 160 161 C165 166.47619048 165 166.47619048 165 169 C165.721875 169.20625 166.44375 169.4125 167.1875 169.625 C170.97218384 171.47528988 172.52258653 173.60240438 175 177 C175 177.66 175 178.32 175 179 C175.99 179 176.98 179 178 179 C178 179.66 178 180.32 178 181 C178.66 181 179.32 181 180 181 C185 186.47619048 185 186.47619048 185 189 C185.99 189 186.98 189 188 189 C188 189.66 188 190.32 188 191 C188.66 191 189.32 191 190 191 C191.625 192.375 191.625 192.375 193 194 C193 194.66 193 195.32 193 196 C193.66 196 194.32 196 195 196 C196.625 197.375 196.625 197.375 198 199 C198 199.66 198 200.32 198 201 C198.66 201 199.32 201 200 201 C201.625 202.375 201.625 202.375 203 204 C203 204.66 203 205.32 203 206 C203.66 206 204.32 206 205 206 C206.625 207.375 206.625 207.375 208 209 C208 209.66 208 210.32 208 211 C208.54140625 211.2165625 209.0828125 211.433125 209.640625 211.65625 C212.81645344 213.46499997 215.20728081 215.91723799 217.75 218.5 C218.25660156 218.99886719 218.76320313 219.49773437 219.28515625 220.01171875 C223 223.74658861 223 223.74658861 223 226 C223.66 226 224.32 226 225 226 C226.625 227.375 226.625 227.375 228 229 C228 229.66 228 230.32 228 231 C229.32 231.33 230.64 231.66 232 232 C232 232.66 232 233.32 232 234 C232.598125 234.28875 233.19625 234.5775 233.8125 234.875 C236 236 236 236 239 238 C239.63204346 237.29576904 240.26408691 236.59153809 240.9152832 235.8659668 C250.63182035 225.14393458 260.91921466 215.00205089 271.1875 204.8125 C274.72550979 201.3010324 278.26021172 197.78628244 281.79296875 194.26953125 C283.00837593 193.06657158 283.00837593 193.06657158 284.24833679 191.83930969 C284.99033829 191.10061142 285.73233978 190.36191315 286.49682617 189.60083008 C287.15124191 188.95165115 287.80565765 188.30247223 288.47990417 187.63362122 C290.08754944 186.05981372 290.08754944 186.05981372 291 184 C291.66 184 292.32 184 293 184 C293 183.34 293 182.68 293 182 C294.375 180.375 294.375 180.375 296 179 C296.66 179 297.32 179 298 179 C298 178.34 298 177.68 298 177 C299.375 175.375 299.375 175.375 301 174 C301.66 174 302.32 174 303 174 C303 173.34 303 172.68 303 172 C304.375 170.375 304.375 170.375 306 169 C306.66 169 307.32 169 308 169 C308 168.01 308 167.02 308 166 C308.66 166 309.32 166 310 166 C310 165.34 310 164.68 310 164 C310.99 164 311.98 164 313 164 C313.33 163.01 313.66 162.02 314 161 C314.66 161 315.32 161 316 161 C316 160.34 316 159.68 316 159 C318.75 158.625 318.75 158.625 322 159 C329.42196042 168.07128496 330.19661204 178.37191039 330.65625 189.64453125 C330.98353265 192.83925621 331.6082672 194.227365 333 197 C333.2647853 199.38852724 333.44559352 201.78718617 333.5625 204.1875 C333.39624914 208.41406117 333.39624914 208.41406117 335 212 C335.23755563 215.33709105 335.39574879 218.66688742 335.51757812 222.00976562 C335.70576183 225.8906107 336.16102083 228.60938215 338 232 C338.37890625 234.76171875 338.37890625 234.76171875 338.5625 237.6875 C338.50754728 241.15595857 338.50754728 241.15595857 340 244 C340.23788858 247.3077841 340.39540297 250.60824645 340.51757812 253.921875 C340.66698952 256.98903718 340.85326152 259.6331538 342 262.5 C343.40516325 266.01290812 343.42482464 269.51597559 343.5625 273.25 C343.33625063 278.0055474 343.33625063 278.0055474 345 282 C345.23788858 285.3077841 345.39540297 288.60824645 345.51757812 291.921875 C345.71922066 296.06125392 346.36506149 299.2192047 348 303 C348.37890625 305.640625 348.37890625 305.640625 348.5625 308.25 C348.55494985 311.43087973 348.55494985 311.43087973 350 314 C350.28868056 317.45958443 350.44901497 320.91951431 350.62109375 324.38671875 C350.98934057 327.89835078 351.88811828 330.66869814 353 334 C353.25525529 336.41045198 353.44145474 338.82909478 353.5625 341.25 C353.6455214 345.78821333 353.6455214 345.78821333 355 350 C355.2787918 353.24372049 355.44687219 356.48738099 355.62109375 359.73828125 C355.98694596 362.88762759 356.79620825 365.0986738 358 368 C358.37890625 370.640625 358.37890625 370.640625 358.5625 373.25 C358.55494985 376.43087973 358.55494985 376.43087973 360 379 C360.28727535 382.5248229 360.44905925 386.04983355 360.62109375 389.58203125 C360.77764917 392.85222407 360.77764917 392.85222407 362 394.94140625 C363.57000061 398.17339969 363.43300757 401.59396246 363.5625 405.125 C363.57605549 410.21802709 363.57605549 410.21802709 365 415 C365.2331989 418.78300443 365.39490761 422.55983009 365.51757812 426.34765625 C365.55173828 427.13785156 365.58589844 427.92804688 365.62109375 428.7421875 C365.6461499 429.4626123 365.67120605 430.18303711 365.69702148 430.92529297 C366.04264741 433.29203682 366.86793656 434.90487723 368 437 C369.81728511 442.24993476 370.19220988 446.52201842 370 452 C370.66 452 371.32 452 372 452 C373.32791923 457.43239684 373.32791923 457.43239684 372.02734375 459.68359375 C368.85050605 461.74639588 365.53084097 461.35280045 361.875 461.25 C361.13378906 461.24484375 360.39257812 461.2396875 359.62890625 461.234375 C354.15430775 461.15430775 354.15430775 461.15430775 353 460 C350.839582 459.62831518 348.67124378 459.30208609 346.5 459 C340.11111111 458.11111111 340.11111111 458.11111111 339 457 C336.67013877 456.79031249 334.33555964 456.63184611 332 456.5 C325.11111111 456.11111111 325.11111111 456.11111111 324 455 C322.00661779 454.62913819 320.00487668 454.30262289 318 454 C312.11111111 453.11111111 312.11111111 453.11111111 311 452 C308.49583065 451.78936893 306.00859919 451.62427923 303.5 451.5 C296.13513514 451.13513514 296.13513514 451.13513514 295 450 C293.63283803 449.86773001 292.25959334 449.79683116 290.88671875 449.75390625 C290.05076172 449.72103516 289.21480469 449.68816406 288.35351562 449.65429688 C286.58800762 449.59350649 284.82237713 449.53616738 283.05664062 449.48242188 C282.21681641 449.44826172 281.37699219 449.41410156 280.51171875 449.37890625 C279.74303467 449.3538501 278.97435059 449.32879395 278.18237305 449.30297852 C275.76267703 448.96705249 274.15896419 448.10982898 272 447 C269.41397286 446.7305643 266.90356082 446.53857849 264.3125 446.4375 C257.12133072 446.12133072 257.12133072 446.12133072 256 445 C253.839582 444.62831518 251.67124378 444.30208609 249.5 444 C243.11111111 443.11111111 243.11111111 443.11111111 242 442 C239.51658199 441.78889481 237.05043287 441.62405205 234.5625 441.5 C227.26857585 441.13428793 227.26857585 441.13428793 225 440 C221.46311669 439.72077237 217.92633561 439.55275342 214.3828125 439.37890625 C211 439 211 439 209.0859375 437.9921875 C205.73185755 436.39680115 202.15127279 436.6533371 198.5 436.5625 C179.83828593 435.83828593 179.83828593 435.83828593 176 432 C173.18369776 431.78855708 170.38282201 431.62371843 167.5625 431.5 C159.26880036 431.13440018 159.26880036 431.13440018 157 430 C153.49042431 429.7667687 149.9873911 429.60601032 146.47265625 429.48242188 C141.93471096 429.2725518 138.31912557 428.50026614 134 427 C131.73550268 426.74723102 129.46278103 426.5597151 127.1875 426.4375 C121.10047847 426.10047847 121.10047847 426.10047847 120 425 C118.00661779 424.62913819 116.00487668 424.30262289 114 424 C108.11111111 423.11111111 108.11111111 423.11111111 107 422 C104.86431655 421.8777988 102.72488777 421.82018593 100.5859375 421.7890625 C99.26722656 421.76070312 97.94851563 421.73234375 96.58984375 421.703125 C94.4900788 421.6620777 92.39052806 421.62519642 90.29052734 421.59863281 C88.26352931 421.57076699 86.23753844 421.52486918 84.2109375 421.4765625 C82.99712402 421.45674316 81.78331055 421.43692383 80.53271484 421.41650391 C76.37496405 420.92630882 73.69831544 419.94229747 70 418 C69 415.375 69 415.375 69 413 C69.33 412.67 69.66 412.34 70 412 C70.02835938 410.97777344 70.05671875 409.95554687 70.0859375 408.90234375 C70.79073852 403.5673538 74.73582993 400.900531 78.625 397.5625 C80.03742832 396.31784632 81.44630236 395.06914744 82.8515625 393.81640625 C83.47885254 393.27443604 84.10614258 392.73246582 84.75244141 392.17407227 C86.73102414 390.26018141 88.5058945 388.30377187 90.30371094 386.22314453 C93.80320552 382.17753339 97.49232133 378.37873244 101.2890625 374.61328125 C101.95537689 373.94838181 102.62169128 373.28348236 103.30819702 372.59843445 C105.4114317 370.50073241 107.5181313 368.40655144 109.625 366.3125 C111.04450462 364.89802104 112.46377735 363.48330932 113.8828125 362.06835938 C117.05627175 358.90479231 120.23227329 355.74379744 123.40951538 352.58403015 C124.8592645 351.14016437 126.30532125 349.69259357 127.75097656 348.24462891 C129.48792404 346.51107538 131.23614656 344.79537276 133.0078125 343.09765625 C134.04694385 342.08600822 135.08600566 341.07428875 136.125 340.0625 C136.64964844 339.56298828 137.17429687 339.06347656 137.71484375 338.54882812 C141.00431384 335.32181633 143.2794684 332.36065768 145 328 C145 326.68 145 325.36 145 324 C144.34 324 143.68 324 143 324 C143 323.01 143 322.02 143 321 C142.360625 320.731875 141.72125 320.46375 141.0625 320.1875 C139 319 139 319 138 316 C137.34 315.67 136.68 315.34 136 315 C134 314 134 314 133 311 C132.34 310.67 131.68 310.34 131 310 C129 309 129 309 128 306 C127.34 305.67 126.68 305.34 126 305 C124 304 124 304 123 301 C122.34 300.67 121.68 300.34 121 300 C119 299 119 299 118 296 C117.34 295.67 116.68 295.34 116 295 C114 294 114 294 113 291 C110.49552484 289.78130071 110.49552484 289.78130071 108 289 C108 288.01 108 287.02 108 286 C107.360625 285.731875 106.72125 285.46375 106.0625 285.1875 C104 284 104 284 103 281 C102.34 281 101.68 281 101 281 C101 280.34 101 279.68 101 279 C100.01 278.67 99.02 278.34 98 278 C98 277.34 98 276.68 98 276 C97.360625 275.731875 96.72125 275.46375 96.0625 275.1875 C94 274 94 274 93 271 C92.34 270.67 91.68 270.34 91 270 C89 269 89 269 88 266 C87.34 265.67 86.68 265.34 86 265 C84 264 84 264 83 261 C82.34 260.67 81.68 260.34 81 260 C79 259 79 259 78 256 C77.34 255.67 76.68 255.34 76 255 C74 254 74 254 73 251 C72.34 250.67 71.68 250.34 71 250 C69 249 69 249 68 246 C67.34 245.67 66.68 245.34 66 245 C64 244 64 244 63 241 C62.34 240.67 61.68 240.34 61 240 C59 239 59 239 58 236 C57.01 236 56.02 236 55 236 C54.7525 235.21625 54.505 234.4325 54.25 233.625 C52.80505715 230.59062001 51.94434181 230.32970275 49 229 C48.67 228.01 48.34 227.02 48 226 C47.01 226 46.02 226 45 226 C44.7525 225.21625 44.505 224.4325 44.25 223.625 C42.80505715 220.59062001 41.94434181 220.32970275 39 219 C38.67 218.01 38.34 217.02 38 216 C37.34 215.67 36.68 215.34 36 215 C34 214 34 214 33 211 C32.34 210.67 31.68 210.34 31 210 C29 209 29 209 28 206 C27.01 206 26.02 206 25 206 C24.01 203.525 24.01 203.525 23 201 C22.34 201 21.68 201 21 201 C21 200.34 21 199.68 21 199 C20.01 198.67 19.02 198.34 18 198 C18 197.34 18 196.68 18 196 C17.360625 195.731875 16.72125 195.46375 16.0625 195.1875 C14 194 14 194 13 191 C12.34 191 11.68 191 11 191 C11 190.34 11 189.68 11 189 C10.01 188.67 9.02 188.34 8 188 C8 187.34 8 186.68 8 186 C7.360625 185.731875 6.72125 185.46375 6.0625 185.1875 C4 184 4 184 3 181 C2.34 181 1.68 181 1 181 C1 180.34 1 179.68 1 179 C0.01 178.67 -0.98 178.34 -2 178 C-2 177.34 -2 176.68 -2 176 C-2.639375 175.731875 -3.27875 175.46375 -3.9375 175.1875 C-6 174 -6 174 -7 171 C-7.66 170.67 -8.32 170.34 -9 170 C-11 169 -11 169 -12 166 C-12.99 166 -13.98 166 -15 166 C-15.99 163.525 -15.99 163.525 -17 161 C-17.66 161 -18.32 161 -19 161 C-19 160.34 -19 159.68 -19 159 C-19.99 158.67 -20.98 158.34 -22 158 C-22 157.34 -22 156.68 -22 156 C-22.639375 155.731875 -23.27875 155.46375 -23.9375 155.1875 C-26 154 -26 154 -27 151 C-27.66 151 -28.32 151 -29 151 C-29 150.34 -29 149.68 -29 149 C-29.99 148.67 -30.98 148.34 -32 148 C-32 147.34 -32 146.68 -32 146 C-32.639375 145.731875 -33.27875 145.46375 -33.9375 145.1875 C-36 144 -36 144 -37 141 C-37.66 141 -38.32 141 -39 141 C-39 140.34 -39 139.68 -39 139 C-39.99 138.67 -40.98 138.34 -42 138 C-42 137.34 -42 136.68 -42 136 C-42.99 135.67 -43.98 135.34 -45 135 C-45 134.34 -45 133.68 -45 133 C-45.66 133 -46.32 133 -47 133 C-47 132.34 -47 131.68 -47 131 C-47.66 131 -48.32 131 -49 131 C-49 130.34 -49 129.68 -49 129 C-49.99 128.67 -50.98 128.34 -52 128 C-52 127.34 -52 126.68 -52 126 C-52.639375 125.731875 -53.27875 125.46375 -53.9375 125.1875 C-56 124 -56 124 -57 121 C-57.66 121 -58.32 121 -59 121 C-60.625 119.625 -60.625 119.625 -62 118 C-62 117.34 -62 116.68 -62 116 C-62.639375 115.731875 -63.27875 115.46375 -63.9375 115.1875 C-66 114 -66 114 -67 111 C-67.66 111 -68.32 111 -69 111 C-70.625 109.625 -70.625 109.625 -72 108 C-72 107.34 -72 106.68 -72 106 C-72.66 106 -73.32 106 -74 106 C-75.4375 104.50390625 -75.4375 104.50390625 -77 102.5625 C-79.14525044 99.84811762 -79.14525044 99.84811762 -82 98 C-82 97.34 -82 96.68 -82 96 C-82.9590625 95.5978125 -82.9590625 95.5978125 -83.9375 95.1875 C-86 94 -86 94 -87 91 C-87.66 91 -88.32 91 -89 91 C-91.43160605 87.63316085 -92 86.26649636 -92 82 C-91.34 82 -90.68 82 -90 82 C-89.67 81.01 -89.34 80.02 -89 79 C-88.34 79 -87.68 79 -87 79 C-87 78.01 -87 77.02 -87 76 C-86.34 76 -85.68 76 -85 76 C-84.67 74.68 -84.34 73.36 -84 72 C-82.02 71.505 -82.02 71.505 -80 71 C-80 70.34 -80 69.68 -80 69 C-78.625 67.375 -78.625 67.375 -77 66 C-76.34 66 -75.68 66 -75 66 C-74.91363281 65.4121875 -74.82726562 64.824375 -74.73828125 64.21875 C-73.79637733 61.38805461 -72.48426739 60.37491215 -70.1875 58.5 C-67.87737444 56.5783392 -65.72573394 54.71851642 -63.625 52.5625 C-62 51 -62 51 -60 51 C-60 50.34 -60 49.68 -60 49 C-58.7151049 47.61992749 -57.36984198 46.29579647 -56 45 C-52.10836583 41.21646678 -48.56636512 37.22558459 -45.0625 33.0859375 C-42.88224947 30.88091139 -40.65436702 29.57425392 -38 28 C-36.65668346 26.00669158 -35.32405988 24.00615134 -34 22 C-32.01739574 20.31267723 -30.0167658 18.64633943 -28 17 C-27.0819039 15.914274 -26.18525895 14.80999419 -25.3125 13.6875 C-24.1678125 12.3571875 -24.1678125 12.3571875 -23 11 C-22.01 11 -21.02 11 -20 11 C-20 10.34 -20 9.68 -20 9 C-19.01 9 -18.02 9 -17 9 C-16.814375 8.13375 -16.814375 8.13375 -16.625 7.25 C-15.96720865 4.88195114 -15.31805282 3.07959445 -14 1 C-9.53045658 -0.94060726 -4.66788218 -1.50576845 0 0 Z " fill="#FEFEFE" transform="translate(596,550)"/>
<path d="M0 0 C5.84463549 -0.10735045 11.60809068 0.00816568 17.43511868 0.49596977 C25.1006685 1.0622725 32.73036043 1.13999446 40.4131012 1.12698364 C41.92203739 1.12814059 43.43097329 1.12973248 44.93990862 1.13171518 C49.05862602 1.13586544 53.17731998 1.13384241 57.29603742 1.13073099 C61.77584494 1.12843921 66.25564874 1.13192846 70.73545551 1.13463593 C79.57243177 1.13904265 88.40939962 1.13802032 97.24637619 1.13516669 C104.53624186 1.13294434 111.82610477 1.13290587 119.11597061 1.13431931 C120.1646025 1.13452155 121.21323439 1.13472378 122.293643 1.13493215 C124.42993905 1.13535277 126.56623511 1.13577743 128.70253116 1.13620608 C150.21384949 1.14022726 171.7251627 1.13669853 193.23648024 1.13056505 C208.66858137 1.12619702 224.10068159 1.12367285 239.53278329 1.12257662 C333.78502055 1.11567323 428.03730054 1.10023206 522.2890625 0.7734375 C523.06399818 0.7707508 523.83893386 0.7680641 524.63735244 0.76529598 C547.25314667 0.68661696 569.86890489 0.59902611 592.48465556 0.50878882 C616.88949777 0.41141932 641.29434359 0.3153559 665.69921875 0.2265625 C666.43564048 0.22387832 667.17206221 0.22119413 667.93079975 0.21842861 C749.4365614 -0.07797081 830.9425816 -0.11580953 912.44881088 -0.12283063 C924.99809791 -0.12397131 937.54738293 -0.12712997 950.0966692 -0.13157158 C967.4401755 -0.1376715 984.78367597 -0.13981801 1002.12718302 -0.13556135 C1003.86126459 -0.13514329 1005.59534615 -0.13472924 1007.32942772 -0.13431931 C1008.60403671 -0.13401615 1008.60403671 -0.13401615 1009.90439538 -0.13370688 C1015.68957936 -0.13256162 1021.4747595 -0.13379386 1027.25994301 -0.13615799 C1061.36958226 -0.14902368 1095.46083024 0.02106952 1129.56524754 0.6467123 C1146.1854134 0.95087284 1162.7928003 1.12492417 1179.41563225 1.04459953 C1183.34133801 1.02616262 1187.26702683 1.01639903 1191.19276428 1.00868225 C1201.57658424 0.98691309 1211.96035326 0.95342275 1222.34411484 0.91250378 C1229.32515259 0.88504179 1236.30615489 0.86327298 1243.28724009 0.85249335 C1246.55175646 0.84708086 1249.81613349 0.83661802 1253.08061028 0.81910515 C1256.65786701 0.79996028 1260.23495495 0.79300825 1263.81225586 0.78881836 C1264.86369278 0.78005676 1265.9151297 0.77129517 1266.99842834 0.76226807 C1272.07086642 0.76907491 1276.25310707 0.96405223 1281 3 C1281 3.66 1281 4.32 1281 5 C1281.66 5 1282.32 5 1283 5 C1285.19424358 12.08715818 1285.27613469 18.71786261 1285.24165154 26.10231972 C1285.24437809 28.08126901 1285.24437809 28.08126901 1285.24715972 30.10019708 C1285.25191377 33.76307007 1285.24417996 37.42582623 1285.23439862 41.08868532 C1285.22595913 45.07325049 1285.22913545 49.05780927 1285.23081791 53.04238069 C1285.23214529 60.02613255 1285.22596525 67.00984669 1285.21486855 73.9935894 C1285.19837531 84.37847878 1285.19330808 94.7633519 1285.19041403 105.14825283 C1285.1844901 124.77252058 1285.16477099 144.39675995 1285.14056377 164.02101256 C1285.12191129 179.17094183 1285.10648207 194.3208711 1285.09332657 209.47080612 C1285.08950438 213.8296348 1285.08566701 218.18846346 1285.08182538 222.54729211 C1285.08087126 223.63085561 1285.07991714 224.71441911 1285.07893412 225.83081786 C1285.05196893 256.31083171 1285.02057295 286.79083841 1284.98036003 317.27083778 C1284.97884601 318.42014077 1284.977332 319.56944375 1284.9757721 320.7535741 C1284.96808969 326.57891853 1284.96037502 332.40426292 1284.95265304 338.2296073 C1284.95035379 339.96505963 1284.95035379 339.96505963 1284.9480081 341.73557159 C1284.94490812 344.0752412 1284.94180544 346.41491081 1284.93870004 348.75458041 C1284.8904771 385.1752508 1284.85850579 421.59590494 1284.83886719 458.01660156 C1284.81679908 498.91850001 1284.78129957 539.82035678 1284.7267276 580.72222555 C1284.72096159 585.08042544 1284.71524719 589.4386254 1284.70956802 593.79682541 C1284.70745833 595.40652248 1284.70745833 595.40652248 1284.70530603 597.04873869 C1284.68295412 614.34201125 1284.67342084 631.63526827 1284.6682932 648.92855349 C1284.66278712 666.29541117 1284.64241345 683.66220252 1284.60686211 701.02902509 C1284.58614659 711.35469726 1284.576558 721.68024089 1284.58275466 732.00593274 C1284.58579267 738.89614004 1284.57442315 745.78622464 1284.55115604 752.67639312 C1284.53829521 756.60675866 1284.5318379 760.53685483 1284.54284512 764.46723218 C1284.55453405 768.69485724 1284.53556405 772.92177983 1284.51339531 777.14936256 C1284.52172732 778.37789011 1284.53005934 779.60641766 1284.53864384 780.87217331 C1284.47750911 787.16284392 1284.37000901 791.28250052 1280 796 C1276.69169923 797.65415039 1273.00291892 797.10614423 1269.36791992 797.07568359 C1268.46604509 797.07254276 1267.56417027 797.06940193 1266.6349659 797.06616592 C1264.65514306 797.05924743 1262.67532656 797.05030379 1260.6955204 797.03963089 C1255.2324229 797.01156916 1249.76931197 797.00248798 1244.30615234 796.99511719 C1243.14690026 796.99350649 1241.98764818 796.99189579 1240.79326725 796.99023628 C1228.74962146 796.98322747 1216.70816375 797.10473291 1204.66547012 797.24594879 C1200.9826336 797.28912872 1197.29977914 797.33023387 1193.61691284 797.37078857 C1183.60853532 797.4817792 1173.60020631 797.59475471 1163.59204102 797.72363281 C1157.34467852 797.80372548 1151.09727287 797.87394406 1144.84972191 797.93757248 C1142.50092399 797.96337727 1140.15216358 797.99288592 1137.80346107 798.02626419 C1134.56471878 798.07196454 1131.32607707 798.10509225 1128.0871582 798.13525391 C1127.13326202 798.1517952 1126.17936584 798.16833649 1125.19656372 798.18537903 C1120.69954947 798.21433125 1117.05482374 798.21214126 1113 796 C1107.8171377 790.8171377 1110.87164069 768.98532924 1110.87091869 761.94477904 C1110.87377108 759.39593535 1110.87671666 756.84709177 1110.87974548 754.29824829 C1110.87986655 751.56792154 1110.87847494 748.83759603 1110.87715632 746.10726964 C1110.87509163 740.18508496 1110.87671082 734.26291036 1110.88079453 728.34072685 C1110.88684982 719.53476898 1110.88712845 710.72881742 1110.88625254 701.92285785 C1110.88494102 687.10712533 1110.88827099 672.29139727 1110.89426994 657.47566605 C1110.90019219 642.8117025 1110.90403694 628.14774082 1110.90512276 613.48377609 C1110.9051915 612.57113592 1110.90526024 611.65849575 1110.90533106 610.71819981 C1110.9056694 606.08313564 1110.90597078 601.44807146 1110.90625793 596.81300728 C1110.9083569 564.00489421 1110.91509024 531.19678357 1110.92456055 498.38867188 C1110.93374871 466.52115899 1110.9408305 434.65364676 1110.94506836 402.78613281 C1110.94519989 401.80339133 1110.94533141 400.82064985 1110.94546692 399.80812833 C1110.94678547 389.93880246 1110.94806128 380.06947659 1110.94930578 370.20015071 C1110.95184182 350.09619215 1110.95466307 329.99223364 1110.95765686 309.88827515 C1110.95779415 308.96398001 1110.95793144 308.03968486 1110.95807289 307.08738078 C1110.96726955 245.39158618 1110.98311428 183.69579292 1111 122 C1110.34 122 1109.68 122 1109 122 C1108.67 121.34 1108.34 120.68 1108 120 C1105.02077407 119.97316013 1102.04178705 119.95323963 1099.0625 119.9375 C1098.21236328 119.92912109 1097.36222656 119.92074219 1096.48632812 119.91210938 C1095.67744141 119.90888672 1094.86855469 119.90566406 1094.03515625 119.90234375 C1093.2862915 119.89710693 1092.53742676 119.89187012 1091.76586914 119.88647461 C1089.97332261 119.80658248 1089.97332261 119.80658248 1089 121 C1087.43681442 121.15713217 1085.8668768 121.24782528 1084.29708749 121.31108046 C1083.29946273 121.35227138 1082.30183796 121.3934623 1081.27398215 121.43590143 C1080.18452603 121.47455449 1079.09506992 121.51320756 1077.97259998 121.55303192 C1076.84412309 121.59512739 1075.71564619 121.63722285 1074.55297302 121.68059394 C1062.84746376 122.08749178 1051.14976756 122.1503169 1039.43840027 122.15148926 C1037.07387339 122.15535211 1034.70934717 122.15964183 1032.34482175 122.16431475 C1025.92298983 122.17581388 1019.50116494 122.18140508 1013.07932484 122.18594956 C1006.8394138 122.19085141 1000.59951067 122.20132432 994.35960593 122.21120207 C981.60243898 122.23125928 968.84527029 122.24700452 956.08809471 122.26036072 C938.62394179 122.27870301 921.15980182 122.30341015 903.69565932 122.32973462 C895.52761504 122.34203782 887.35957031 122.35403221 879.19152546 122.36594391 C878.37401171 122.36713643 877.55649795 122.36832896 876.71421106 122.36955762 C857.29263118 122.39781567 837.87104755 122.42303559 818.44946289 122.44775391 C817.60081029 122.4488351 816.75215768 122.4499163 815.87778833 122.45103026 C804.70148337 122.46526601 793.52517828 122.47939389 782.34887314 122.49348927 C766.92276747 122.51294537 751.49666193 122.5324974 736.07055664 122.55224609 C734.80446242 122.55386529 734.80446242 122.55386529 733.51279054 122.5555172 C714.17582133 122.5802632 694.83885376 122.60587355 675.50188923 122.63405609 C674.68496375 122.63524634 673.86803828 122.63643659 673.02635749 122.63766291 C664.86075452 122.64957873 656.69515177 122.6616384 648.52954933 122.67391312 C631.10898503 122.7000672 613.68842271 122.72374244 596.26784832 122.74208651 C583.54331753 122.75552445 570.81879448 122.77225456 558.09427216 122.79218161 C551.23212832 122.80282794 544.36999173 122.81195681 537.50784111 122.81687737 C508.06277402 122.83899534 478.63628772 123.05747353 449.19787842 123.70955452 C432.67598642 124.07440543 416.15872512 124.15846894 399.6333046 124.12877274 C397.22228188 124.12485334 394.81126337 124.12288791 392.40023804 124.12130737 C367.99803964 124.10257276 343.60630634 123.86572862 319.20776367 123.42626953 C316.5486707 123.37889387 313.88957575 123.33172833 311.23046875 123.28515625 C310.55391928 123.27329285 309.8773698 123.26142944 309.18031883 123.24920654 C295.30450627 123.00965807 281.42801151 122.87391687 267.55078125 122.74609375 C265.31042985 122.72514801 263.07007849 122.70419769 260.82972717 122.6832428 C250.79557573 122.59013023 240.76141392 122.50044387 230.72715664 122.41948795 C226.54977007 122.38489471 222.37242146 122.34669548 218.19507408 122.30768013 C216.24141512 122.29028574 214.28774098 122.27450896 212.33405495 122.26048088 C185.06354866 122.06354866 185.06354866 122.06354866 183 120 C181.14712498 119.92773498 179.29166122 119.9161878 177.4375 119.9375 C176.42558594 119.94652344 175.41367187 119.95554687 174.37109375 119.96484375 C173.58863281 119.97644531 172.80617188 119.98804688 172 120 C171.67 120.66 171.34 121.32 171 122 C170.34 122 169.68 122 169 122 C169.00515373 122.92298291 169.01030746 123.84596582 169.01561737 124.79691792 C169.49606947 211.11728036 169.92036834 297.43878486 170.12494534 505.75700778 C170.125 508.18741318 170.12510806 510.61781857 170.12523127 513.04822397 C170.12880657 588.36726714 170.03855028 663.68542042 169.73828125 739.00390625 C169.73221418 740.53204846 169.72614723 742.06019068 169.72008038 743.58833289 C169.60248537 773.13801532 169.47405 802.6876335 169.32020697 832.23715063 C169.31670222 832.9104644 169.31319748 833.58377817 169.30958652 834.27749538 C169.30609884 834.9474786 169.30261116 835.61746182 169.29901779 836.30774755 C169.25553141 844.69449952 169.21520509 853.08126706 169.17514509 861.468036 C169.14079685 868.58183305 169.10169882 875.69558213 169.05866694 882.80933172 C169.03369972 887.10033009 169.01290551 891.39134113 168.99328589 895.68236697 C168.98342102 897.64463057 168.97177119 899.60688616 168.95817208 901.56912744 C168.93994708 904.22717721 168.92804875 906.8851835 168.91770935 909.54327393 C168.91090552 910.3056172 168.90410169 911.06796047 168.89709169 911.85340506 C168.88773314 916.32429255 169.19173771 920.60024932 170 925 C172.51900322 927.51900322 179.22190983 926.45081488 182.59107971 926.56333923 C183.83594101 926.60570896 185.08080232 926.64807869 186.36338669 926.69173235 C202.8185385 927.20825491 219.27937281 927.07504395 235.74010909 926.99879324 C240.58159802 926.97768163 245.42310706 926.96315006 250.26461792 926.94807434 C257.54508756 926.92494705 264.8255472 926.90006612 272.10600359 926.87308853 C286.3869359 926.82046914 300.66787142 926.78449265 314.9488678 926.75462341 C317.20614352 926.74983661 319.46341924 926.7450495 321.72069496 926.74026209 C326.28612437 926.73063744 330.85155398 926.72111113 335.41698372 926.71164691 C347.09610665 926.6874099 358.77522801 926.66264043 370.4543457 926.63598633 C371.62447417 926.63332234 372.79460264 926.63065836 374.00018955 926.62791365 C393.03580995 926.58379245 412.07126712 926.51440446 431.10677724 926.43691314 C450.69191224 926.35785918 470.27696013 926.30915743 489.86224371 926.28796238 C501.92548516 926.27387773 513.98815374 926.23551023 526.05120546 926.16602176 C534.29694342 926.12070921 542.54241137 926.1045011 550.78826975 926.11150218 C555.54681895 926.11465018 560.30440522 926.10460307 565.06276512 926.05981445 C569.41521574 926.01911812 573.76608096 926.01507104 578.11863274 926.04059612 C579.6953017 926.04329107 581.27206316 926.03234422 582.84852444 926.00661332 C594.56081699 925.82616513 594.56081699 925.82616513 598.03734934 928.66171479 C600.43545354 932.23281697 601.62522254 935.89121803 601.62145996 940.21157837 C601.63827316 941.64126701 601.63827316 941.64126701 601.65542603 943.09983826 C601.64216278 944.11828323 601.62889954 945.13672821 601.61523438 946.18603516 C601.62078339 947.27971909 601.6263324 948.37340302 601.63204956 949.50022888 C601.64381147 953.09695954 601.61960679 956.69242093 601.59375 960.2890625 C601.59203816 962.79674217 601.59210533 965.30442364 601.59387207 967.81210327 C601.59222087 973.05912531 601.57414245 978.3058226 601.54199219 983.55273438 C601.50506669 989.60818376 601.49632331 995.66316039 601.5032897 1001.71870768 C601.50960589 1007.56109672 601.49860715 1013.40332104 601.47932434 1019.24567795 C601.4722979 1021.72477811 601.46916938 1024.2038925 601.47001648 1026.68300247 C601.46821769 1030.1465147 601.44682881 1033.60935752 601.41992188 1037.07275391 C601.42285248 1038.09524734 601.42578308 1039.11774078 601.42880249 1040.17121887 C601.34562897 1047.11458378 599.87387711 1051.18918433 596 1057 C593.31030273 1057.26464844 593.31030273 1057.26464844 589.93359375 1057.109375 C588.72638672 1057.05910156 587.51917969 1057.00882813 586.27539062 1056.95703125 C585.00888672 1056.88871094 583.74238281 1056.82039063 582.4375 1056.75 C581.16712891 1056.69714844 579.89675781 1056.64429688 578.58789062 1056.58984375 C569.1563244 1056.1563244 569.1563244 1056.1563244 568 1055 C565.33296568 1054.9001551 562.69177405 1054.86639188 560.02420807 1054.87415886 C559.17410186 1054.87270542 558.32399565 1054.87125198 557.44812864 1054.86975449 C554.56228483 1054.86606721 551.67649295 1054.86959345 548.79064941 1054.87301636 C546.71572419 1054.87186561 544.64079917 1054.87027841 542.56587458 1054.86828911 C536.83506744 1054.86408936 531.10427681 1054.86618938 525.37346959 1054.86927533 C519.20435677 1054.8715266 513.03524689 1054.86805119 506.86613464 1054.86529541 C495.4695946 1054.86109392 484.07306134 1054.86147468 472.67652147 1054.86420688 C462.14985102 1054.86671827 451.62318252 1054.86738108 441.09651184 1054.86618423 C440.39939327 1054.86610785 439.70227471 1054.86603146 438.98403134 1054.86595276 C436.1544994 1054.86564145 433.32496746 1054.86532305 430.49543552 1054.864993 C403.92944166 1054.8619311 377.36345119 1054.86471205 350.79745785 1054.8700899 C327.17340108 1054.87483582 303.54934969 1054.87441121 279.92529297 1054.86962891 C253.40919267 1054.86427915 226.89309537 1054.86214822 200.37699461 1054.86524117 C197.55249246 1054.86556191 194.72799031 1054.86587475 191.90348816 1054.86618423 C190.86022201 1054.86630285 190.86022201 1054.86630285 189.79587977 1054.86642386 C179.27349036 1054.86756335 168.7511031 1054.86622731 158.22871399 1054.86370468 C146.26933485 1054.86085192 134.30996208 1054.8616431 122.3505832 1054.86698543 C116.24224493 1054.86962362 110.13391765 1054.87062552 104.02557945 1054.86733627 C98.44345025 1054.86437572 92.86134229 1054.86596206 87.27921504 1054.87131383 C85.25030402 1054.87243905 83.22139124 1054.87184454 81.19248134 1054.86943804 C78.45355866 1054.86643639 75.71471058 1054.86947608 72.97579193 1054.87415886 C71.76968259 1054.87064711 71.76968259 1054.87064711 70.5392074 1054.86706442 C66.97425897 1054.54774184 66.97425897 1054.54774184 64 1056 C62.33570949 1056.09823937 60.66718069 1056.12973631 59 1056.125 C58.0925 1056.12757812 57.185 1056.13015625 56.25 1056.1328125 C54 1056 54 1056 53 1055 C51.65455673 1054.90214659 50.30407437 1054.87202015 48.95507812 1054.87060547 C48.09748901 1054.86745331 47.2398999 1054.86430115 46.35632324 1054.86105347 C44.95791199 1054.86408981 44.95791199 1054.86408981 43.53125 1054.8671875 C42.58060669 1054.86623077 41.62996338 1054.86527405 40.6505127 1054.86428833 C38.63631118 1054.86360643 36.62210748 1054.86546138 34.60791016 1054.86962891 C31.51329645 1054.87497702 28.4188279 1054.86968423 25.32421875 1054.86328125 C23.37239551 1054.86394203 21.42057236 1054.86522319 19.46875 1054.8671875 C18.53647583 1054.86516327 17.60420166 1054.86313904 16.64367676 1054.86105347 C15.35729309 1054.86578171 15.35729309 1054.86578171 14.04492188 1054.87060547 C13.28626831 1054.87140106 12.52761475 1054.87219666 11.74597168 1054.87301636 C9.97122688 1054.81078913 9.97122688 1054.81078913 9 1056 C3.26388889 1056.27314815 3.26388889 1056.27314815 1 1056 C0.34 1055.34 -0.32 1054.68 -1 1054 C-1 1053.01 -1 1052.02 -1 1051 C-1.66 1051 -2.32 1051 -3 1051 C-4.48150943 1048.03698114 -4.12575696 1045.38750378 -4.12649983 1042.07898188 C-4.12878965 1040.99117205 -4.12878965 1040.99117205 -4.13112573 1039.88138626 C-4.13506044 1037.42150696 -4.13179579 1034.96168788 -4.12863445 1032.50180817 C-4.12997953 1030.72473153 -4.13176252 1028.94765518 -4.13394669 1027.17057937 C-4.138706 1022.24576568 -4.13716563 1017.32097034 -4.13466892 1012.39615571 C-4.13304408 1007.05407195 -4.13716975 1001.71199225 -4.14057809 996.36990976 C-4.14574685 986.99350577 -4.14714675 977.61710695 -4.14612198 968.24070168 C-4.14460185 954.29807581 -4.1487481 940.35545569 -4.1539966 926.41283093 C-4.16368625 900.06776171 -4.16648205 873.72269468 -4.16705366 847.37762392 C-4.16711841 844.47004596 -4.16718635 841.56246801 -4.16725707 838.65489006 C-4.16727408 837.93340959 -4.16729108 837.21192912 -4.1673086 836.46858561 C-4.1677167 820.49528214 -4.16990545 804.52197907 -4.17241292 788.54867581 C-4.17344124 781.97573633 -4.17443125 775.40279684 -4.17542917 768.82985735 C-4.17553975 768.10365186 -4.17565034 767.37744637 -4.17576428 766.62923465 C-4.18209011 725.00306478 -4.18621321 683.37689517 -4.18575573 641.75072479 C-4.18573995 640.19226513 -4.18572422 638.63380548 -4.18570852 637.07534582 C-4.18563514 630.03868442 -4.18554697 623.00202302 -4.18545464 615.96536162 C-4.18541351 612.82739216 -4.18537337 609.68942271 -4.18533332 606.55145325 C-4.18531293 604.98084155 -4.18529191 603.41022986 -4.18527026 601.83961816 C-4.18458982 552.16114214 -4.19190996 502.48267324 -4.20581055 452.80419922 C-4.20931138 440.28589124 -4.21278076 427.76758325 -4.21607494 415.24927521 C-4.21627782 414.47853991 -4.21648069 413.70780461 -4.21668971 412.9137137 C-4.22290147 389.17153827 -4.22666964 365.42936341 -4.22793293 341.68718719 C-4.22797288 340.94214157 -4.22801283 340.19709595 -4.22805399 339.42947319 C-4.22890713 323.07657057 -4.22916851 306.72366798 -4.22888362 290.37076535 C-4.22878713 284.51990622 -4.22873509 278.66904709 -4.22870489 272.81818796 C-4.22869697 271.3625667 -4.22868677 269.90694544 -4.22867426 268.45132419 C-4.22849771 245.22663904 -4.23420529 222.00195999 -4.24282808 198.77727659 C-4.2517048 174.74658894 -4.2533123 150.7159124 -4.24651595 126.6852237 C-4.24280581 112.8172424 -4.24469604 98.94928778 -4.25445829 85.08130928 C-4.26042012 75.83482048 -4.25920556 66.58835119 -4.25198779 57.34186332 C-4.24807389 52.06235091 -4.24742251 46.78289046 -4.25544515 41.50338155 C-4.26266505 36.71052506 -4.26085806 31.91776432 -4.25152128 27.12491227 C-4.24978485 25.39217215 -4.25147671 23.65942475 -4.25682249 21.926692 C-4.26355084 19.59134785 -4.25817917 17.25634824 -4.24954766 14.92101812 C-4.24963588 13.62277093 -4.2497241 12.32452373 -4.249815 10.9869357 C-4 8 -4 8 -2 6 C-1.28591666 4.01643517 -0.61382258 2.01684563 0 0 Z M0 5 C0 350.18 0 695.36 0 1051 C196.68 1051 393.36 1051 596 1051 C596 1011.73 596 972.46 596 932 C453.44 932 310.88 932 164 932 C164 662.39 164 392.78 164 115 C478.16 115 792.32 115 1116 115 C1116 338.74 1116 562.48 1116 793 C1170.12 793 1224.24 793 1280 793 C1280 532.96 1280 272.92 1280 5 C857.6 5 435.2 5 0 5 Z " fill="#000000" transform="translate(160,272)"/>
<path d="M0 0 C5.84463549 -0.10735045 11.60809068 0.00816568 17.43511868 0.49596977 C25.1006685 1.0622725 32.73036043 1.13999446 40.4131012 1.12698364 C41.92203739 1.12814059 43.43097329 1.12973248 44.93990862 1.13171518 C49.05862602 1.13586544 53.17731998 1.13384241 57.29603742 1.13073099 C61.77584494 1.12843921 66.25564874 1.13192846 70.73545551 1.13463593 C79.57243177 1.13904265 88.40939962 1.13802032 97.24637619 1.13516669 C104.53624186 1.13294434 111.82610477 1.13290587 119.11597061 1.13431931 C120.1646025 1.13452155 121.21323439 1.13472378 122.293643 1.13493215 C124.42993905 1.13535277 126.56623511 1.13577743 128.70253116 1.13620608 C150.21384949 1.14022726 171.7251627 1.13669853 193.23648024 1.13056505 C208.66858137 1.12619702 224.10068159 1.12367285 239.53278329 1.12257662 C333.78502055 1.11567323 428.03730054 1.10023206 522.2890625 0.7734375 C523.06399818 0.7707508 523.83893386 0.7680641 524.63735244 0.76529598 C547.25314667 0.68661696 569.86890489 0.59902611 592.48465556 0.50878882 C616.88949777 0.41141932 641.29434359 0.3153559 665.69921875 0.2265625 C666.43564048 0.22387832 667.17206221 0.22119413 667.93079975 0.21842861 C749.4365614 -0.07797081 830.9425816 -0.11580953 912.44881088 -0.12283063 C924.99809791 -0.12397131 937.54738293 -0.12712997 950.0966692 -0.13157158 C967.4401755 -0.1376715 984.78367597 -0.13981801 1002.12718302 -0.13556135 C1003.86126459 -0.13514329 1005.59534615 -0.13472924 1007.32942772 -0.13431931 C1008.60403671 -0.13401615 1008.60403671 -0.13401615 1009.90439538 -0.13370688 C1015.68957936 -0.13256162 1021.4747595 -0.13379386 1027.25994301 -0.13615799 C1061.36958226 -0.14902368 1095.46083024 0.02106952 1129.56524754 0.6467123 C1146.1854134 0.95087284 1162.7928003 1.12492417 1179.41563225 1.04459953 C1183.34133801 1.02616262 1187.26702683 1.01639903 1191.19276428 1.00868225 C1201.57658424 0.98691309 1211.96035326 0.95342275 1222.34411484 0.91250378 C1229.32515259 0.88504179 1236.30615489 0.86327298 1243.28724009 0.85249335 C1246.55175646 0.84708086 1249.81613349 0.83661802 1253.08061028 0.81910515 C1256.65786701 0.79996028 1260.23495495 0.79300825 1263.81225586 0.78881836 C1264.86369278 0.78005676 1265.9151297 0.77129517 1266.99842834 0.76226807 C1272.07086642 0.76907491 1276.25310707 0.96405223 1281 3 C1281 3.66 1281 4.32 1281 5 C858.27 5 435.54 5 0 5 C0 350.18 0 695.36 0 1051 C196.68 1051 393.36 1051 596 1051 C596 1051.33 596 1051.66 596 1052 C539.12621182 1052.05133402 482.25242137 1052.09909859 425.37861633 1052.12702942 C424.53741719 1052.12744359 423.69621805 1052.12785776 422.82952803 1052.12828448 C404.54981251 1052.13726235 386.27009675 1052.14557302 367.99038063 1052.15319599 C359.02654601 1052.15693813 350.06271147 1052.16082778 341.09887695 1052.16479492 C340.20684814 1052.1651872 339.31481933 1052.16557948 338.39575935 1052.16598364 C309.46113907 1052.17877706 280.52653631 1052.20131797 251.59192666 1052.22889166 C221.86804996 1052.25716618 192.14418296 1052.27565092 162.42029304 1052.28174497 C158.2259586 1052.28260949 154.0316242 1052.2835864 149.83728981 1052.28463173 C148.59898196 1052.28493513 148.59898196 1052.28493513 147.33565779 1052.28524467 C134.02474511 1052.28879549 120.71386237 1052.30272491 107.40296191 1052.3204961 C94.03434801 1052.33812429 80.6657639 1052.34491238 67.29713877 1052.34050413 C59.34595842 1052.33821528 51.3948868 1052.34436882 43.443726 1052.36239263 C37.51951923 1052.37490916 31.59538854 1052.37191547 25.67117331 1052.36269668 C23.26467259 1052.36142073 20.85816292 1052.36529841 18.45168003 1052.37464955 C15.1985061 1052.38656309 11.94587797 1052.38027727 8.69271374 1052.36914349 C7.26784396 1052.38096505 7.26784396 1052.38096505 5.81418893 1052.39302543 C4.95169698 1052.38628355 4.08920503 1052.37954167 3.20057696 1052.37259549 C2.45608144 1052.37306343 1.71158592 1052.37353137 0.94452993 1052.37401349 C-1 1052 -1 1052 -2.73910501 1050.91703882 C-4.67647177 1047.97150622 -4.37495199 1045.45406619 -4.37489682 1041.95478338 C-4.37897954 1041.22829874 -4.38306227 1040.5018141 -4.3872687 1039.75331477 C-4.39736934 1037.29493961 -4.38591408 1034.8371244 -4.37473011 1032.37876034 C-4.37755363 1030.60051609 -4.38169273 1028.82227352 -4.38703534 1027.04403505 C-4.39795964 1022.12059179 -4.39001784 1017.19732647 -4.3792013 1012.27388951 C-4.37073362 1006.93160617 -4.37957114 1001.58934803 -4.38626546 996.24706608 C-4.39558958 986.87185809 -4.3936779 977.4967036 -4.38453293 968.1214962 C-4.3709716 954.18067916 -4.37448572 940.23990346 -4.38149153 926.29908347 C-4.3927468 902.85104225 -4.3897467 879.40302473 -4.37832069 855.95498466 C-4.36701873 832.72724615 -4.36103135 809.49951758 -4.36250877 786.2717762 C-4.36259418 784.81451304 -4.36267906 783.35724988 -4.36276341 781.89998672 C-4.36311124 776.04423099 -4.36349632 770.18847527 -4.36392899 764.33271955 C-4.36512376 747.9623707 -4.36530544 731.5920219 -4.36472607 715.22167301 C-4.36470004 714.47613735 -4.36467401 713.73060168 -4.3646472 712.96247402 C-4.36374821 689.19784561 -4.35844749 665.4332203 -4.3500185 641.66859341 C-4.34974531 640.89753155 -4.34947212 640.12646969 -4.34919066 639.33204231 C-4.34473669 626.80956395 -4.34002206 614.28708567 -4.33529177 601.76460741 C-4.31654509 552.09282346 -4.31012776 502.42105473 -4.31567383 452.74926758 C-4.31602081 449.61033483 -4.31636643 446.47140208 -4.31671212 443.33246934 C-4.31679772 442.55638566 -4.31688333 441.78030199 -4.31697152 440.98070063 C-4.31791761 432.3862881 -4.31882933 423.79187557 -4.31969929 415.19746304 C-4.31977821 414.42678972 -4.31985712 413.6561164 -4.31993843 412.86208934 C-4.3241581 371.28454948 -4.3188595 329.70701133 -4.310188 288.12947232 C-4.30988471 286.66424727 -4.30958181 285.19902223 -4.3092793 283.73379719 C-4.30912971 283.00948162 -4.30898011 282.28516604 -4.30882599 281.53890151 C-4.30852457 280.07758386 -4.30822358 278.61626621 -4.30792303 277.15494856 C-4.30717416 273.51427818 -4.30641817 269.8736078 -4.30564686 266.23293742 C-4.30229549 250.25935077 -4.30023089 234.28576538 -4.30158257 218.31217837 C-4.30164311 217.59159686 -4.30170365 216.87101534 -4.30176603 216.12859802 C-4.30207802 212.50024061 -4.30241144 208.8718832 -4.30275235 205.24352579 C-4.3052001 179.05091391 -4.30116051 152.85831855 -4.28554235 126.6657105 C-4.27746599 112.79994795 -4.27490972 98.93421012 -4.2801847 85.06844607 C-4.28314681 75.82346802 -4.27890795 66.57851194 -4.26863613 57.33353915 C-4.26297311 52.0549103 -4.26055978 46.77633211 -4.26680271 41.49770277 C-4.27240226 36.70565585 -4.26897059 31.91370781 -4.25800393 27.12167094 C-4.25567643 25.38922846 -4.25677543 23.65677753 -4.26152648 21.92434001 C-4.26745199 19.58939319 -4.2612806 17.25479498 -4.251849 14.91986746 C-4.25148974 13.621844 -4.25113048 12.32382054 -4.25076034 10.98646304 C-4 8 -4 8 -2 6 C-1.28591666 4.01643517 -0.61382258 2.01684563 0 0 Z " fill="#080808" transform="translate(160,272)"/>
<path d="M0 0 C0 0.66 0 1.32 0 2 C0.66 2 1.32 2 2 2 C5 6.38461538 5 6.38461538 5 9 C5.99 9 6.98 9 8 9 C8 9.66 8 10.32 8 11 C8.66 11 9.32 11 10 11 C11.625 12.375 11.625 12.375 13 14 C13 14.66 13 15.32 13 16 C13.66 16 14.32 16 15 16 C16.70993434 17.6222454 18.37347684 19.29413425 20 21 C20.598125 21.556875 21.19625 22.11375 21.8125 22.6875 C23 24 23 24 23 26 C23.66 26 24.32 26 25 26 C26.625 27.375 26.625 27.375 28 29 C28 29.66 28 30.32 28 31 C28.66 31 29.32 31 30 31 C31.625 32.375 31.625 32.375 33 34 C33 34.66 33 35.32 33 36 C33.66 36 34.32 36 35 36 C36.70993434 37.6222454 38.37347684 39.29413425 40 41 C40.598125 41.556875 41.19625 42.11375 41.8125 42.6875 C43 44 43 44 43 46 C43.66 46 44.32 46 45 46 C46.625 47.375 46.625 47.375 48 49 C48 49.66 48 50.32 48 51 C48.66 51 49.32 51 50 51 C51.625 52.375 51.625 52.375 53 54 C53 54.66 53 55.32 53 56 C53.66 56 54.32 56 55 56 C56.625 57.375 56.625 57.375 58 59 C58 59.66 58 60.32 58 61 C58.66 61 59.32 61 60 61 C61.625 62.375 61.625 62.375 63 64 C63 64.66 63 65.32 63 66 C63.66 66 64.32 66 65 66 C66.625 67.375 66.625 67.375 68 69 C68 69.66 68 70.32 68 71 C68.66 71 69.32 71 70 71 C71.625 72.375 71.625 72.375 73 74 C73 74.66 73 75.32 73 76 C73.66 76 74.32 76 75 76 C76.625 77.375 76.625 77.375 78 79 C78 79.66 78 80.32 78 81 C78.66 81 79.32 81 80 81 C81.625 82.375 81.625 82.375 83 84 C83 84.66 83 85.32 83 86 C83.66 86 84.32 86 85 86 C86.625 87.375 86.625 87.375 88 89 C88 89.66 88 90.32 88 91 C88.66 91 89.32 91 90 91 C91.625 92.375 91.625 92.375 93 94 C93 94.66 93 95.32 93 96 C93.66 96 94.32 96 95 96 C96.625 97.375 96.625 97.375 98 99 C98 99.66 98 100.32 98 101 C98.66 101 99.32 101 100 101 C105 106.47619048 105 106.47619048 105 109 C105.99 109 106.98 109 108 109 C108 109.66 108 110.32 108 111 C108.66 111 109.32 111 110 111 C115 116.47619048 115 116.47619048 115 119 C115.99 119 116.98 119 118 119 C118 119.66 118 120.32 118 121 C118.66 121 119.32 121 120 121 C125 126.47619048 125 126.47619048 125 129 C125.99 129 126.98 129 128 129 C128 129.66 128 130.32 128 131 C128.66 131 129.32 131 130 131 C135 136.47619048 135 136.47619048 135 139 C135.99 139 136.98 139 138 139 C138 139.66 138 140.32 138 141 C138.66 141 139.32 141 140 141 C141.625 142.375 141.625 142.375 143 144 C143 144.66 143 145.32 143 146 C143.66 146 144.32 146 145 146 C145 146.99 145 147.98 145 149 C145.99 149 146.98 149 148 149 C148 149.66 148 150.32 148 151 C148.66 151 149.32 151 150 151 C151.625 152.375 151.625 152.375 153 154 C153 154.66 153 155.32 153 156 C153.66 156 154.32 156 155 156 C155 156.99 155 157.98 155 159 C155.99 159 156.98 159 158 159 C158 159.66 158 160.32 158 161 C158.66 161 159.32 161 160 161 C165 166.47619048 165 166.47619048 165 169 C165.721875 169.20625 166.44375 169.4125 167.1875 169.625 C170.97218384 171.47528988 172.52258653 173.60240438 175 177 C175 177.66 175 178.32 175 179 C175.99 179 176.98 179 178 179 C178 179.66 178 180.32 178 181 C178.66 181 179.32 181 180 181 C185 186.47619048 185 186.47619048 185 189 C185.99 189 186.98 189 188 189 C188 189.66 188 190.32 188 191 C188.66 191 189.32 191 190 191 C191.625 192.375 191.625 192.375 193 194 C193 194.66 193 195.32 193 196 C193.66 196 194.32 196 195 196 C196.625 197.375 196.625 197.375 198 199 C198 199.66 198 200.32 198 201 C198.66 201 199.32 201 200 201 C201.625 202.375 201.625 202.375 203 204 C203 204.66 203 205.32 203 206 C203.66 206 204.32 206 205 206 C206.625 207.375 206.625 207.375 208 209 C208 209.66 208 210.32 208 211 C208.54140625 211.2165625 209.0828125 211.433125 209.640625 211.65625 C212.81645344 213.46499997 215.20728081 215.91723799 217.75 218.5 C218.25660156 218.99886719 218.76320313 219.49773437 219.28515625 220.01171875 C223 223.74658861 223 223.74658861 223 226 C223.66 226 224.32 226 225 226 C226.625 227.375 226.625 227.375 228 229 C228 229.66 228 230.32 228 231 C229.32 231.33 230.64 231.66 232 232 C232 232.66 232 233.32 232 234 C232.598125 234.28875 233.19625 234.5775 233.8125 234.875 C236 236 236 236 239 238 C239.63204346 237.29576904 240.26408691 236.59153809 240.9152832 235.8659668 C250.63182035 225.14393458 260.91921466 215.00205089 271.1875 204.8125 C274.72550979 201.3010324 278.26021172 197.78628244 281.79296875 194.26953125 C283.00837593 193.06657158 283.00837593 193.06657158 284.24833679 191.83930969 C284.99033829 191.10061142 285.73233978 190.36191315 286.49682617 189.60083008 C287.15124191 188.95165115 287.80565765 188.30247223 288.47990417 187.63362122 C290.08754944 186.05981372 290.08754944 186.05981372 291 184 C291.66 184 292.32 184 293 184 C293 183.34 293 182.68 293 182 C294.375 180.375 294.375 180.375 296 179 C296.66 179 297.32 179 298 179 C298 178.34 298 177.68 298 177 C299.375 175.375 299.375 175.375 301 174 C301.66 174 302.32 174 303 174 C303 173.34 303 172.68 303 172 C304.375 170.375 304.375 170.375 306 169 C306.66 169 307.32 169 308 169 C308 168.01 308 167.02 308 166 C308.66 166 309.32 166 310 166 C310 165.34 310 164.68 310 164 C310.99 164 311.98 164 313 164 C313.33 163.01 313.66 162.02 314 161 C314.66 161 315.32 161 316 161 C316 160.34 316 159.68 316 159 C317.98 159 319.96 159 322 159 C322.33 159.99 322.66 160.98 323 162 C322.51504059 162.41408898 322.03008118 162.82817797 321.53042603 163.2548151 C316.49141658 167.60403393 311.71678645 172.14527728 307.0234375 176.86303711 C305.89514778 177.99110779 305.89514778 177.99110779 304.74406433 179.14196777 C302.28532863 181.60139408 299.8301432 184.06433165 297.375 186.52734375 C295.66029396 188.243917 293.94536542 189.96026802 292.23022461 191.67640686 C287.73673216 196.17370062 283.24625211 200.6739904 278.75640869 205.17492676 C274.16625657 209.77534449 269.57323983 214.37290026 264.98046875 218.97070312 C255.98418522 227.97768186 246.99105321 236.9878004 238 246 C232.07082595 241.08211709 226.63485872 235.77274883 221.19874573 230.31900024 C220.21946457 229.34015577 219.23996343 228.36153133 218.26026291 227.38310659 C215.58306058 224.70813009 212.90896919 222.03006283 210.23539507 219.3514607 C207.34637354 216.45810728 204.45444873 213.56765822 201.56288147 210.67684937 C196.55816883 205.67266023 191.55528553 200.66664828 186.55365181 195.65938187 C179.32218967 188.41978119 172.08795688 181.18295431 164.85305213 173.9467942 C153.1140254 162.20558065 141.37723203 150.46213722 129.6418457 138.71728516 C118.24425664 127.31051241 106.8456143 115.90479391 95.44555664 104.50048828 C94.74246475 103.79713367 94.03937286 103.09377905 93.31497515 102.36911066 C89.787646 98.84047643 86.26029615 95.31186289 82.73293602 91.78325963 C53.48541608 62.5253786 24.24152164 33.2638759 -5 4 C-7.99102187 5.43536617 -10.09330664 6.84522053 -12.44219971 9.20169067 C-13.10400238 9.86074402 -13.76580505 10.51979736 -14.44766235 11.19882202 C-15.16263885 11.92098907 -15.87761536 12.64315613 -16.61425781 13.38720703 C-17.75630173 14.52881287 -17.75630173 14.52881287 -18.92141724 15.69348145 C-21.43675604 18.21021356 -23.94493661 20.73395584 -26.453125 23.2578125 C-28.19575111 25.00416872 -29.93881931 26.7500839 -31.68231201 28.49557495 C-36.27013748 33.09103696 -40.85192517 37.69247349 -45.43249512 42.29516602 C-50.10762586 46.99075464 -54.78842168 51.68068622 -59.46875 56.37109375 C-68.65139791 65.57519196 -77.8277403 74.78555028 -87 84 C-82.08211709 89.92917405 -76.77274883 95.36514128 -71.31900024 100.80125427 C-70.34015577 101.78053543 -69.36153133 102.76003657 -68.38310659 103.73973709 C-65.70813009 106.41693942 -63.03006283 109.09103081 -60.3514607 111.76460493 C-57.45810728 114.65362646 -54.56765822 117.54555127 -51.67684937 120.43711853 C-46.67266023 125.44183117 -41.66664828 130.44471447 -36.65938187 135.44634819 C-29.41978119 142.67781033 -22.18295431 149.91204312 -14.9467942 157.14694787 C-3.20558065 168.8859746 8.53786278 180.62276797 20.28271484 192.3581543 C31.68948759 203.75574336 43.09520609 215.1543857 54.49951172 226.55444336 C55.20286633 227.25753525 55.90622095 227.96062714 56.63088934 228.68502485 C60.15952357 232.212354 63.68813711 235.73970385 67.21674037 239.26706398 C96.4746214 268.51458392 125.7361241 297.75847836 155 327 C153.54154747 330.04365389 152.08622036 332.1632137 149.69114685 334.55609131 C149.0082962 335.24313644 148.32544556 335.93018158 147.62190247 336.63804626 C146.87325424 337.38107498 146.12460602 338.1241037 145.35327148 338.88964844 C144.56454651 339.68027176 143.77582153 340.47089508 142.9631958 341.28547668 C140.35402348 343.89835492 137.73771866 346.50396172 135.12109375 349.109375 C133.30994345 350.91933354 131.49916227 352.72966151 129.68873596 354.54034424 C125.89461582 358.33289995 122.09727922 362.12219091 118.29711914 365.90869141 C113.89825715 370.29180054 109.50467136 374.6801421 105.11404556 379.07150054 C100.89304521 383.29311017 96.66914527 387.51180755 92.44374275 391.72901154 C90.64370438 393.5258567 88.84428078 395.32331792 87.04546928 397.1213913 C84.53860148 399.62610414 82.0284768 402.12750383 79.51733398 404.62792969 C78.3913253 405.75461815 78.3913253 405.75461815 77.24256897 406.90406799 C76.56253815 407.57983383 75.88250732 408.25559967 75.18186951 408.95184326 C74.58806708 409.54396984 73.99426466 410.13609642 73.38246822 410.74616623 C72 412 72 412 71 412 C70.52734375 408.96484375 70.52734375 408.96484375 71 405 C73.15835374 402.11383813 75.82283447 399.88699155 78.5625 397.5625 C79.98402536 396.31785245 81.40201394 395.06915373 82.81640625 393.81640625 C83.45006104 393.27443604 84.08371582 392.73246582 84.73657227 392.17407227 C86.72726013 390.26197266 88.5034211 388.3092138 90.3059082 386.22314453 C93.80415461 382.17685322 97.49254262 378.37851298 101.2890625 374.61328125 C101.95537689 373.94838181 102.62169128 373.28348236 103.30819702 372.59843445 C105.4114317 370.50073241 107.5181313 368.40655144 109.625 366.3125 C111.04450462 364.89802104 112.46377735 363.48330932 113.8828125 362.06835938 C117.05627175 358.90479231 120.23227329 355.74379744 123.40951538 352.58403015 C124.8592645 351.14016437 126.30532125 349.69259357 127.75097656 348.24462891 C129.48792404 346.51107538 131.23614656 344.79537276 133.0078125 343.09765625 C134.04694385 342.08600822 135.08600566 341.07428875 136.125 340.0625 C136.64964844 339.56298828 137.17429687 339.06347656 137.71484375 338.54882812 C141.00431384 335.32181633 143.2794684 332.36065768 145 328 C145 326.68 145 325.36 145 324 C144.34 324 143.68 324 143 324 C143 323.01 143 322.02 143 321 C142.360625 320.731875 141.72125 320.46375 141.0625 320.1875 C139 319 139 319 138 316 C137.34 315.67 136.68 315.34 136 315 C134 314 134 314 133 311 C132.34 310.67 131.68 310.34 131 310 C129 309 129 309 128 306 C127.34 305.67 126.68 305.34 126 305 C124 304 124 304 123 301 C122.34 300.67 121.68 300.34 121 300 C119 299 119 299 118 296 C117.34 295.67 116.68 295.34 116 295 C114 294 114 294 113 291 C110.49552484 289.78130071 110.49552484 289.78130071 108 289 C108 288.01 108 287.02 108 286 C107.360625 285.731875 106.72125 285.46375 106.0625 285.1875 C104 284 104 284 103 281 C102.34 281 101.68 281 101 281 C101 280.34 101 279.68 101 279 C100.01 278.67 99.02 278.34 98 278 C98 277.34 98 276.68 98 276 C97.360625 275.731875 96.72125 275.46375 96.0625 275.1875 C94 274 94 274 93 271 C92.34 270.67 91.68 270.34 91 270 C89 269 89 269 88 266 C87.34 265.67 86.68 265.34 86 265 C84 264 84 264 83 261 C82.34 260.67 81.68 260.34 81 260 C79 259 79 259 78 256 C77.34 255.67 76.68 255.34 76 255 C74 254 74 254 73 251 C72.34 250.67 71.68 250.34 71 250 C69 249 69 249 68 246 C67.34 245.67 66.68 245.34 66 245 C64 244 64 244 63 241 C62.34 240.67 61.68 240.34 61 240 C59 239 59 239 58 236 C57.01 236 56.02 236 55 236 C54.7525 235.21625 54.505 234.4325 54.25 233.625 C52.80505715 230.59062001 51.94434181 230.32970275 49 229 C48.67 228.01 48.34 227.02 48 226 C47.01 226 46.02 226 45 226 C44.7525 225.21625 44.505 224.4325 44.25 223.625 C42.80505715 220.59062001 41.94434181 220.32970275 39 219 C38.67 218.01 38.34 217.02 38 216 C37.34 215.67 36.68 215.34 36 215 C34 214 34 214 33 211 C32.34 210.67 31.68 210.34 31 210 C29 209 29 209 28 206 C27.01 206 26.02 206 25 206 C24.01 203.525 24.01 203.525 23 201 C22.34 201 21.68 201 21 201 C21 200.34 21 199.68 21 199 C20.01 198.67 19.02 198.34 18 198 C18 197.34 18 196.68 18 196 C17.360625 195.731875 16.72125 195.46375 16.0625 195.1875 C14 194 14 194 13 191 C12.34 191 11.68 191 11 191 C11 190.34 11 189.68 11 189 C10.01 188.67 9.02 188.34 8 188 C8 187.34 8 186.68 8 186 C7.360625 185.731875 6.72125 185.46375 6.0625 185.1875 C4 184 4 184 3 181 C2.34 181 1.68 181 1 181 C1 180.34 1 179.68 1 179 C0.01 178.67 -0.98 178.34 -2 178 C-2 177.34 -2 176.68 -2 176 C-2.639375 175.731875 -3.27875 175.46375 -3.9375 175.1875 C-6 174 -6 174 -7 171 C-7.66 170.67 -8.32 170.34 -9 170 C-11 169 -11 169 -12 166 C-12.99 166 -13.98 166 -15 166 C-15.99 163.525 -15.99 163.525 -17 161 C-17.66 161 -18.32 161 -19 161 C-19 160.34 -19 159.68 -19 159 C-19.99 158.67 -20.98 158.34 -22 158 C-22 157.34 -22 156.68 -22 156 C-22.639375 155.731875 -23.27875 155.46375 -23.9375 155.1875 C-26 154 -26 154 -27 151 C-27.66 151 -28.32 151 -29 151 C-29 150.34 -29 149.68 -29 149 C-29.99 148.67 -30.98 148.34 -32 148 C-32 147.34 -32 146.68 -32 146 C-32.639375 145.731875 -33.27875 145.46375 -33.9375 145.1875 C-36 144 -36 144 -37 141 C-37.66 141 -38.32 141 -39 141 C-39 140.34 -39 139.68 -39 139 C-39.99 138.67 -40.98 138.34 -42 138 C-42 137.34 -42 136.68 -42 136 C-42.99 135.67 -43.98 135.34 -45 135 C-45 134.34 -45 133.68 -45 133 C-45.66 133 -46.32 133 -47 133 C-47 132.34 -47 131.68 -47 131 C-47.66 131 -48.32 131 -49 131 C-49 130.34 -49 129.68 -49 129 C-49.99 128.67 -50.98 128.34 -52 128 C-52 127.34 -52 126.68 -52 126 C-52.639375 125.731875 -53.27875 125.46375 -53.9375 125.1875 C-56 124 -56 124 -57 121 C-57.66 121 -58.32 121 -59 121 C-60.625 119.625 -60.625 119.625 -62 118 C-62 117.34 -62 116.68 -62 116 C-62.639375 115.731875 -63.27875 115.46375 -63.9375 115.1875 C-66 114 -66 114 -67 111 C-67.66 111 -68.32 111 -69 111 C-70.625 109.625 -70.625 109.625 -72 108 C-72 107.34 -72 106.68 -72 106 C-72.66 106 -73.32 106 -74 106 C-75.4375 104.50390625 -75.4375 104.50390625 -77 102.5625 C-79.14525044 99.84811762 -79.14525044 99.84811762 -82 98 C-82 97.34 -82 96.68 -82 96 C-82.9590625 95.5978125 -82.9590625 95.5978125 -83.9375 95.1875 C-86 94 -86 94 -87 91 C-87.66 91 -88.32 91 -89 91 C-91.43160605 87.63316085 -92 86.26649636 -92 82 C-91.34 82 -90.68 82 -90 82 C-89.67 81.01 -89.34 80.02 -89 79 C-88.34 79 -87.68 79 -87 79 C-87 78.01 -87 77.02 -87 76 C-86.34 76 -85.68 76 -85 76 C-84.67 74.68 -84.34 73.36 -84 72 C-82.02 71.505 -82.02 71.505 -80 71 C-80 70.34 -80 69.68 -80 69 C-78.625 67.375 -78.625 67.375 -77 66 C-76.34 66 -75.68 66 -75 66 C-74.91363281 65.4121875 -74.82726562 64.824375 -74.73828125 64.21875 C-73.79637733 61.38805461 -72.48426739 60.37491215 -70.1875 58.5 C-67.87737444 56.5783392 -65.72573394 54.71851642 -63.625 52.5625 C-62 51 -62 51 -60 51 C-60 50.34 -60 49.68 -60 49 C-58.7151049 47.61992749 -57.36984198 46.29579647 -56 45 C-52.10836583 41.21646678 -48.56636512 37.22558459 -45.0625 33.0859375 C-42.88224947 30.88091139 -40.65436702 29.57425392 -38 28 C-36.65668346 26.00669158 -35.32405988 24.00615134 -34 22 C-32.01739574 20.31267723 -30.0167658 18.64633943 -28 17 C-27.0819039 15.914274 -26.18525895 14.80999419 -25.3125 13.6875 C-24.1678125 12.3571875 -24.1678125 12.3571875 -23 11 C-22.01 11 -21.02 11 -20 11 C-20 10.34 -20 9.68 -20 9 C-19.01 9 -18.02 9 -17 9 C-16.814375 8.13375 -16.814375 8.13375 -16.625 7.25 C-15.96720865 4.88195114 -15.31805282 3.07959445 -14 1 C-9.53045658 -0.94060726 -4.66788218 -1.50576845 0 0 Z " fill="#030303" transform="translate(596,550)"/>
<path d="M0 0 C1.68029297 0.02126953 1.68029297 0.02126953 3.39453125 0.04296875 C5.05548828 0.05263672 5.05548828 0.05263672 6.75 0.0625 C10.20703125 0.23046875 10.20703125 0.23046875 13.17038494 0.73230022 C18.50584103 1.51241126 23.86965734 1.37400222 29.2504034 1.36913395 C31.07583211 1.37339728 31.07583211 1.37339728 32.93813816 1.37774673 C36.31856306 1.38463858 39.69893852 1.38708791 43.07936691 1.38767415 C46.75596279 1.38940513 50.43254767 1.39689158 54.10913712 1.4036507 C60.55351175 1.4147043 66.99788248 1.42207815 73.44226456 1.42704964 C83.02483501 1.4344587 92.60739183 1.44754257 102.18995424 1.46179539 C118.30910651 1.48560951 134.42826121 1.50481219 150.54742241 1.52139473 C166.50944793 1.53783066 182.47146893 1.55631127 198.43348885 1.577528 C199.42563196 1.57884561 200.41777508 1.58016321 201.43998314 1.58152075 C206.47849263 1.58822275 211.51700206 1.59496134 216.55551148 1.60171401 C252.25144011 1.64948829 287.94737297 1.6926701 323.64331055 1.7331543 C358.3233267 1.7724968 393.00333934 1.81391754 427.68334961 1.8581543 C428.75217296 1.85951683 429.82099631 1.86087936 430.92220824 1.86228317 C441.6556853 1.87596845 452.3891623 1.88969599 463.12263927 1.90345452 C484.98833981 1.93148173 506.8540407 1.95922674 528.71974182 1.98680115 C529.72511086 1.98806935 530.7304799 1.98933755 531.76631467 1.99064417 C598.9132145 2.07531269 666.06012231 2.15340284 733.20703125 2.23046875 C733.20703125 3.55046875 733.20703125 4.87046875 733.20703125 6.23046875 C489.66703125 6.23046875 246.12703125 6.23046875 -4.79296875 6.23046875 C-4.79296875 148.13046875 -4.79296875 290.03046875 -4.79296875 436.23046875 C-5.78296875 436.23046875 -6.77296875 436.23046875 -7.79296875 436.23046875 C-7.79296875 294.99046875 -7.79296875 153.75046875 -7.79296875 8.23046875 C-7.13296875 8.23046875 -6.47296875 8.23046875 -5.79296875 8.23046875 C-5.66921875 7.28171875 -5.54546875 6.33296875 -5.41796875 5.35546875 C-4.62800872 1.40566858 -4.08704676 0.33725281 0 0 Z " fill="#000000" transform="translate(866.79296875,1163.76953125)"/>
<path d="M0 0 C3.6964594 2.28646973 4.6953902 4.05217127 5.6875 8.25 C7.08145581 14.39539657 7.47573787 20.47601086 7.69140625 26.75 C7.99018896 29.89667365 8.62868637 31.2626879 10 34 C10.2647853 36.38852724 10.44559352 38.78718617 10.5625 41.1875 C10.39624914 45.41406117 10.39624914 45.41406117 12 49 C12.23755563 52.33709105 12.39574879 55.66688742 12.51757812 59.00976562 C12.70576183 62.8906107 13.16102083 65.60938215 15 69 C15.37890625 71.76171875 15.37890625 71.76171875 15.5625 74.6875 C15.50754728 78.15595857 15.50754728 78.15595857 17 81 C17.23788858 84.3077841 17.39540297 87.60824645 17.51757812 90.921875 C17.66698952 93.98903718 17.85326152 96.6331538 19 99.5 C20.40516325 103.01290812 20.42482464 106.51597559 20.5625 110.25 C20.33625063 115.0055474 20.33625063 115.0055474 22 119 C22.23788858 122.3077841 22.39540297 125.60824645 22.51757812 128.921875 C22.71922066 133.06125392 23.36506149 136.2192047 25 140 C25.37890625 142.640625 25.37890625 142.640625 25.5625 145.25 C25.55494985 148.43087973 25.55494985 148.43087973 27 151 C27.28868056 154.45958443 27.44901497 157.91951431 27.62109375 161.38671875 C27.98934057 164.89835078 28.88811828 167.66869814 30 171 C30.25525529 173.41045198 30.44145474 175.82909478 30.5625 178.25 C30.6455214 182.78821333 30.6455214 182.78821333 32 187 C32.2787918 190.24372049 32.44687219 193.48738099 32.62109375 196.73828125 C32.98694596 199.88762759 33.79620825 202.0986738 35 205 C35.37890625 207.640625 35.37890625 207.640625 35.5625 210.25 C35.55494985 213.43087973 35.55494985 213.43087973 37 216 C37.28727535 219.5248229 37.44905925 223.04983355 37.62109375 226.58203125 C37.77764917 229.85222407 37.77764917 229.85222407 39 231.94140625 C40.57000061 235.17339969 40.43300757 238.59396246 40.5625 242.125 C40.57605549 247.21802709 40.57605549 247.21802709 42 252 C42.2331989 255.78300443 42.39490761 259.55983009 42.51757812 263.34765625 C42.55173828 264.13785156 42.58589844 264.92804688 42.62109375 265.7421875 C42.6461499 266.4626123 42.67120605 267.18303711 42.69702148 267.92529297 C43.04264741 270.29203682 43.86793656 271.90487723 45 274 C46.81728511 279.24993476 47.19220988 283.52201842 47 289 C47.66 289 48.32 289 49 289 C50.32791923 294.43239684 50.32791923 294.43239684 49.02734375 296.68359375 C45.85050605 298.74639588 42.53084097 298.35280045 38.875 298.25 C38.13378906 298.24484375 37.39257812 298.2396875 36.62890625 298.234375 C31.15430775 298.15430775 31.15430775 298.15430775 30 297 C27.839582 296.62831518 25.67124378 296.30208609 23.5 296 C17.11111111 295.11111111 17.11111111 295.11111111 16 294 C13.67013877 293.79031249 11.33555964 293.63184611 9 293.5 C2.11111111 293.11111111 2.11111111 293.11111111 1 292 C-0.99338221 291.62913819 -2.99512332 291.30262289 -5 291 C-10.88888889 290.11111111 -10.88888889 290.11111111 -12 289 C-14.50416935 288.78936893 -16.99140081 288.62427923 -19.5 288.5 C-26.86486486 288.13513514 -26.86486486 288.13513514 -28 287 C-29.36716197 286.86773001 -30.74040666 286.79683116 -32.11328125 286.75390625 C-32.94923828 286.72103516 -33.78519531 286.68816406 -34.64648438 286.65429688 C-36.41199238 286.59350649 -38.17762287 286.53616738 -39.94335938 286.48242188 C-40.78318359 286.44826172 -41.62300781 286.41410156 -42.48828125 286.37890625 C-43.25696533 286.3538501 -44.02564941 286.32879395 -44.81762695 286.30297852 C-47.23732297 285.96705249 -48.84103581 285.10982898 -51 284 C-53.58602714 283.7305643 -56.09643918 283.53857849 -58.6875 283.4375 C-65.87866928 283.12133072 -65.87866928 283.12133072 -67 282 C-69.160418 281.62831518 -71.32875622 281.30208609 -73.5 281 C-79.88888889 280.11111111 -79.88888889 280.11111111 -81 279 C-83.48341801 278.78889481 -85.94956713 278.62405205 -88.4375 278.5 C-95.73142415 278.13428793 -95.73142415 278.13428793 -98 277 C-101.53688331 276.72077237 -105.07366439 276.55275342 -108.6171875 276.37890625 C-112 276 -112 276 -113.9140625 274.9921875 C-117.26814245 273.39680115 -120.84872721 273.6533371 -124.5 273.5625 C-143.16171407 272.83828593 -143.16171407 272.83828593 -147 269 C-149.81630224 268.78855708 -152.61717799 268.62371843 -155.4375 268.5 C-163.73119964 268.13440018 -163.73119964 268.13440018 -166 267 C-169.50957569 266.7667687 -173.0126089 266.60601032 -176.52734375 266.48242188 C-181.06528904 266.2725518 -184.68087443 265.50026614 -189 264 C-191.26449732 263.74723102 -193.53721897 263.5597151 -195.8125 263.4375 C-201.89952153 263.10047847 -201.89952153 263.10047847 -203 262 C-204.99338221 261.62913819 -206.99512332 261.30262289 -209 261 C-214.88888889 260.11111111 -214.88888889 260.11111111 -216 259 C-218.13568345 258.8777988 -220.27511223 258.82018593 -222.4140625 258.7890625 C-223.73277344 258.76070312 -225.05148437 258.73234375 -226.41015625 258.703125 C-228.5099212 258.6620777 -230.60947194 258.62519642 -232.70947266 258.59863281 C-234.73647069 258.57076699 -236.76246156 258.52486918 -238.7890625 258.4765625 C-240.00287598 258.45674316 -241.21668945 258.43692383 -242.46728516 258.41650391 C-246.62692504 257.9260861 -249.3026449 256.94888081 -253 255 C-253.9375 252.3125 -253.9375 252.3125 -254 250 C-251.1363439 248.56817195 -249.28572165 249.31079209 -246.14526367 249.86425781 C-244.93115311 250.07371033 -243.71704254 250.28316284 -242.46614075 250.4989624 C-241.81763468 250.61364616 -241.16912861 250.72832993 -240.50097084 250.84648895 C-237.06099612 251.45367416 -233.61706064 252.03754795 -230.17333984 252.62304688 C-229.47519448 252.74216808 -228.77704912 252.86128929 -228.05774784 252.98402023 C-221.90104249 254.02932129 -215.73218756 254.97149292 -209.55078125 255.859375 C-208.51467209 256.00833221 -207.47856293 256.15728943 -206.41105652 256.3107605 C-204.21449703 256.6250551 -202.01779124 256.93832857 -199.82095337 257.25067139 C-193.24392056 258.18672506 -186.66887027 259.13656151 -180.09375 260.0859375 C-179.35206385 260.19294102 -178.61037769 260.29994453 -177.8462162 260.41019058 C-154.25126741 263.81594196 -130.67123782 267.32385021 -107.08893204 270.8158226 C-95.84454821 272.48078181 -84.60002852 274.14482324 -73.35546875 275.80859375 C-72.13765905 275.98879625 -70.91984936 276.16899876 -69.66513634 276.35466194 C-44.50969022 280.07655873 -19.35052704 283.77288627 5.81123447 287.45183277 C8.67017477 287.86989191 11.52907058 288.28825477 14.38796425 288.70663261 C16.26795881 288.98158157 18.14803805 289.25595128 20.02812195 289.5302887 C27.69103791 290.65126029 35.3471894 291.81201126 43 293 C42.81198822 291.95920792 42.62397644 290.91841583 42.43026733 289.84608459 C40.64567383 279.89599443 39.026292 269.93237932 37.5390625 259.93359375 C37.31052158 258.40829417 37.08180177 256.88302138 36.85292053 255.35777283 C36.23666713 251.24680909 35.62331239 247.13541793 35.01064682 243.02391815 C34.48575723 239.50364029 33.95926847 235.9836022 33.43286419 232.46355057 C28.26374455 197.89312224 23.14837882 163.31469937 18.05671883 128.73278618 C16.19084969 116.06054879 14.31783494 103.3893907 12.43812847 90.71919823 C11.0323718 81.24330751 9.62951562 71.76699028 8.22858906 62.29038429 C7.37688609 56.53007074 6.52366064 50.76999168 5.6668396 45.01043701 C4.86422269 39.61494185 4.06566515 34.21886133 3.27017212 28.8223114 C2.97575576 26.83009003 2.67983663 24.8380901 2.38232422 22.84632874 C1.97442818 20.11410997 1.57188955 17.38115289 1.1706543 14.64794922 C1.05078502 13.85378286 0.93091574 13.05961651 0.80741405 12.24138451 C0.20859998 8.12022725 -0.12431169 4.17879141 0 0 Z " fill="#080808" transform="translate(919,713)"/>
</svg>
